<svg width="38" height="72" viewBox="0 0 38 72" fill="white" xmlns="http://www.w3.org/2000/svg">
    <mask id="mask0_1_568" style="mask-type:alpha" maskUnits="userSpaceOnUse" x="0" y="0" width="38"
        height="72">
        <path
            d="M14.7685 25.92C14.7685 25.92 14.6891 25.92 14.5701 25.8411C14.4511 25.8016 14.2527 25.7227 13.975 25.6044C13.499 25.3677 12.7849 24.9732 11.9518 24.263C11.5551 23.9079 11.1187 23.474 10.722 22.8822C10.3253 22.3299 9.92857 21.6197 9.69054 20.7912C9.41284 19.9627 9.33346 18.9764 9.45247 17.9112C9.49214 17.6745 9.5715 17.3984 9.61117 17.1222L9.65083 16.9249V16.8855C9.65083 16.846 9.65087 16.9249 9.69054 16.7671L9.7302 16.6882L9.84919 16.3726C9.92853 16.1753 9.96824 15.9781 10.0873 15.7414C10.2063 15.5047 10.3253 15.2285 10.4046 14.9918C10.8807 14.0055 11.5154 13.0586 12.4278 12.1907C12.8642 11.7567 13.4196 11.4016 13.975 11.0466C14.5701 10.731 15.1652 10.4548 15.7999 10.297C16.4346 10.1392 17.1091 10.0208 17.7438 9.94191L18.2199 9.90247H18.4579H18.4976C18.5769 9.90247 18.4183 9.90247 18.6563 9.90247H18.7753C18.934 9.90247 19.0133 9.90246 19.291 9.94191L19.6481 9.98137L19.8068 10.0208L19.9257 10.0603C21.3936 10.4153 22.6631 11.0466 23.8532 11.954C25.0434 12.8614 26.0749 14.0844 26.7493 15.5836C27.1063 16.3332 27.3046 17.1222 27.4633 17.9112C27.5427 18.3058 27.5427 18.7397 27.5824 19.1342V19.2921V19.4893V19.7655V20.2784C27.5427 20.6729 27.5427 21.1068 27.503 21.5014C27.4633 21.8959 27.4237 22.2904 27.3443 22.6849C27.2253 23.474 26.9476 24.3025 26.6302 25.0915C26.2732 25.8806 25.8368 26.6696 25.2814 27.3797C24.726 28.0899 24.0119 28.7211 23.2978 29.2734C22.5441 29.8257 21.711 30.2203 20.8779 30.5753L20.2431 30.8121L20.1638 30.8515L20.0051 30.891L19.8464 30.9304L19.5687 31.0093L19.291 31.0882C19.172 31.1277 19.053 31.1277 18.934 31.1671L18.1802 31.2855C16.3156 31.4827 14.3717 31.246 12.5865 30.4964C10.8013 29.7863 9.13514 28.5633 7.90532 27.0247C7.31025 26.2356 6.75483 25.3677 6.39779 24.4208L6.23909 24.0658L6.15977 23.9079C6.15977 23.9474 6.12011 23.7501 6.12011 23.7501L6.0804 23.6712L5.88204 23.04C5.76303 22.6455 5.64405 22.0931 5.52504 21.5803C4.77128 17.5562 6.12007 13.2953 8.8574 10.1786C9.57149 9.42904 10.3253 8.67945 11.198 8.08767C11.3964 7.92986 11.6344 7.8115 11.8725 7.6537L12.0311 7.53534L12.1105 7.49589C12.1898 7.45644 12.1105 7.49589 12.2692 7.41698L12.5865 7.25918C12.9436 7.06192 13.5783 6.8252 14.0941 6.62794C16.1966 5.95726 18.3786 5.87835 20.4812 6.19397C21.5523 6.35177 22.5838 6.58849 23.6152 6.98301C24.6467 7.37753 25.6385 7.89041 26.5906 8.60054L26.9476 8.87671L27.265 9.15287L27.5427 9.38958L27.86 9.70521C28.0584 9.90247 28.2568 10.0997 28.4155 10.3364C28.6138 10.5337 28.7725 10.731 28.9312 10.9677C29.6056 11.8356 30.2007 12.743 30.7164 13.7293C31.1925 14.7156 31.5892 15.7414 31.8669 16.8066C32.1446 17.8718 32.2636 18.9764 32.3429 20.0811C32.3429 21.1858 32.3032 22.2904 32.0652 23.3951L31.9859 23.7896L31.9066 24.1841C31.8669 24.4208 31.7478 24.7364 31.6685 25.0126C31.5098 25.5649 31.3115 26.0778 31.0734 26.5907C30.161 28.6422 28.8518 30.4964 27.2253 32.0351C25.5988 33.5737 23.5755 34.7178 21.4729 35.4674L21.3936 35.5068C21.354 35.5068 21.2349 35.5463 21.2349 35.5463L21.0366 35.5857L20.6795 35.7041C20.4415 35.783 20.2034 35.8619 19.9257 35.9408C19.3703 36.0592 18.7753 36.217 18.2199 36.2959C17.1091 36.4932 15.9586 36.4931 14.8081 36.4537C12.5072 36.2959 10.2459 35.5463 8.3417 34.3233C7.38959 33.7315 6.47711 33.0214 5.68368 32.1929L5.08861 31.5616L5.00929 31.4827C4.89027 31.3644 4.92993 31.4038 4.89025 31.3644L4.77127 31.2066L4.53325 30.891C4.21588 30.457 3.8985 30.1414 3.58112 29.6285C3.26375 29.1551 2.94636 28.6816 2.66866 28.1688L1.91489 26.709C1.47851 25.6833 1.04215 24.697 0.804122 23.6318C0.447079 22.606 0.328035 21.5014 0.129678 20.4362C0.0503349 19.3315 -0.0686602 18.2663 0.0503543 17.1616C0.0900257 14.9523 0.724769 12.7825 1.63721 10.8493C2.54966 8.91616 3.77947 7.10137 5.20764 5.56274C6.67549 3.98466 8.38137 2.68274 10.3253 1.73589C11.2774 1.26246 12.3088 0.867948 13.3403 0.631235L14.1337 0.433975L14.3321 0.394521C14.4908 0.355068 14.4114 0.394518 14.4908 0.355066H14.5701L14.9272 0.315612L16.395 0.118351L17.1091 0.0394545H17.9025C18.4182 0.0394545 18.9736 0.0394521 19.4894 0H19.8861L20.2828 0.0394545L21.0366 0.118351C21.5523 0.197255 22.068 0.197255 22.5441 0.315612C24.5673 0.710132 26.5112 1.38082 28.2964 2.36712C29.1692 2.91945 30.0023 3.43232 30.7561 4.06356C30.9544 4.22137 31.1528 4.37918 31.3512 4.53699L31.8669 5.0104C32.2239 5.32602 32.581 5.68109 32.8983 6.03616C34.2472 7.41698 35.4373 8.99506 36.3101 10.731C37.1829 12.4668 37.6986 14.3211 37.8969 16.1753C38.016 17.1222 38.0159 18.0296 37.9763 18.937V19.0948V19.2131V19.2921L37.9366 19.6077L37.8573 20.2389C37.8176 20.6729 37.7779 21.1068 37.7382 21.5014C37.6192 22.3693 37.4606 23.2373 37.3019 24.1052C37.1432 24.9732 36.9052 25.7622 36.7068 26.5907C35.7944 29.8652 34.5248 32.903 33.0173 35.6252C31.4701 38.3474 29.6453 40.7934 27.9394 43.0027C26.2732 45.2515 24.726 47.3819 23.4169 49.5123C22.7424 50.5381 22.1473 51.6033 21.5523 52.5896C20.9969 53.6153 20.4415 54.5622 20.0051 55.5485C19.7671 56.0219 19.529 56.4953 19.3307 56.9688C19.1323 57.4422 18.934 57.9156 18.7356 58.3496C18.6563 58.5468 18.5373 58.7836 18.4579 58.9808C18.3786 59.2175 18.2992 59.4542 18.2199 59.6515C18.0612 60.0855 17.9025 60.5195 17.7835 60.9534C16.752 64.3068 16.5933 67.1079 16.5933 69.0016C16.5933 69.4751 16.5934 69.909 16.633 70.2641C16.633 70.6192 16.6727 70.9348 16.7124 71.1715C16.752 71.6449 16.7917 71.8816 16.7917 71.8816L16.0776 72C16.0776 72 16.0379 71.7238 15.9586 71.2504C15.9189 71.0137 15.8793 70.6981 15.8793 70.3036C15.8396 69.9485 15.7999 69.5145 15.7999 69.0016C15.7602 67.0685 15.8396 64.149 16.8314 60.6378C16.9504 60.2038 17.1091 59.7699 17.2678 59.3359C17.3471 59.0992 17.4265 58.9019 17.4661 58.6652C17.5455 58.4285 17.6645 58.1918 17.7438 57.9551C17.9422 57.4816 18.1405 57.0082 18.3389 56.5348C18.5372 56.0614 18.7753 55.5879 19.0133 55.0751C19.4497 54.0888 20.0051 53.063 20.5605 52.0373C21.1556 51.0115 21.711 49.9463 22.3854 48.8811C23.6946 46.7112 25.2021 44.5019 26.8286 42.2137C28.4948 39.9255 30.2007 37.5978 31.6288 34.9545C33.0173 32.2718 34.2075 29.3523 35.0009 26.1962C35.1596 25.4071 35.3976 24.6181 35.5167 23.829C35.6357 23.04 35.7944 22.251 35.8737 21.383C35.9134 20.949 35.953 20.5151 35.9927 20.0811L36.0324 19.4499L36.0721 19.1342V19.0553C36.0721 19.0948 36.0721 19.0159 36.0721 19.0159V18.8581C36.0721 18.0296 36.072 17.2011 35.953 16.4121C35.5563 13.1375 33.8901 10.0208 31.3908 7.53534C31.0734 7.21973 30.7561 6.94356 30.4387 6.62794L29.923 6.15452L29.4072 5.76C28.7328 5.20767 27.9791 4.73424 27.2253 4.30027C25.6385 3.47178 23.9723 2.88 22.1871 2.56438C21.7507 2.48548 21.2746 2.48548 20.8382 2.40658L20.1638 2.32767L19.8068 2.28821H19.4894L18.1405 2.32767H17.4661L16.752 2.44602L15.2842 2.64328L14.9272 2.68273H14.8478C14.8478 2.68273 14.7288 2.68273 14.8081 2.68273L14.6495 2.72219L13.975 2.88C13.1023 3.11671 12.2691 3.43232 11.436 3.82684C8.18299 5.44438 5.5647 8.44274 3.97784 11.8751C3.18441 13.5715 2.70833 15.3863 2.66866 17.2405C2.58932 18.1874 2.70835 19.1342 2.7877 20.0811C2.94638 21.0279 3.0654 21.9748 3.38277 22.8427C3.6208 23.7501 4.01751 24.6181 4.37455 25.5255L5.04895 26.7879C5.28698 27.1825 5.52502 27.5375 5.80272 27.9321C6.00107 28.2871 6.39781 28.7211 6.71518 29.1156L6.9532 29.4312L7.07218 29.589C7.07218 29.589 7.15153 29.7074 7.07218 29.589L7.15156 29.6679L7.62759 30.1808C8.30201 30.8121 9.0161 31.4038 9.80953 31.8773C11.3567 32.8636 13.1419 33.4159 14.9668 33.4948C15.8793 33.5342 16.7917 33.4948 17.7042 33.337C18.1802 33.2975 18.5769 33.1397 19.0133 33.0608C19.2117 33.0214 19.4894 32.903 19.7274 32.8241L20.0844 32.7058L20.2828 32.6663C20.3621 32.6268 20.2828 32.6663 20.3225 32.6663L20.4018 32.6268C22.1474 31.9562 23.7739 31.0488 25.083 29.7863C26.4319 28.5633 27.503 27.0247 28.2171 25.3677C28.3758 24.9337 28.5344 24.5392 28.6931 24.1052C28.7328 23.9079 28.8122 23.7501 28.8518 23.474L28.9312 23.1583L28.9709 22.8033C29.1295 21.8959 29.1692 21.0279 29.1692 20.1205C29.1295 19.2132 29.0105 18.3452 28.7725 17.5167C28.5345 16.6488 28.2171 15.8597 27.8204 15.0707C27.4237 14.2816 26.9476 13.5321 26.3922 12.8614C26.2732 12.7036 26.1145 12.5063 25.9558 12.3485C25.7972 12.1907 25.6781 12.0329 25.5194 11.8751L25.3211 11.6384L25.0434 11.4016L24.8054 11.1649L24.5673 11.0071C23.3375 10.0603 21.5919 9.46849 19.9257 9.23178C18.2199 8.99507 16.4743 9.07397 14.9668 9.58684C14.6494 9.7052 14.3321 9.78411 13.8957 10.0603L13.5783 10.2181C13.6973 10.1392 13.5783 10.2181 13.5783 10.2181L13.499 10.2575L13.38 10.3364C13.2213 10.4548 13.0229 10.5337 12.8643 10.6521C12.1898 11.1255 11.5948 11.6778 11.079 12.2696C8.93678 14.7156 7.945 18.0296 8.5004 20.949C8.57974 21.3041 8.61939 21.6197 8.77808 22.0537L8.97643 22.6849L9.0161 22.7638C9.0161 22.8033 8.97642 22.6849 9.0161 22.7638L9.05576 22.8822L9.17479 23.1189C9.45249 23.7896 9.84923 24.3814 10.2856 24.9731C11.1981 26.0778 12.3485 26.9458 13.6577 27.4192C14.9668 27.9321 16.3553 28.0899 17.6645 27.9715L18.1009 27.8926C18.1802 27.8926 18.2199 27.8926 18.3389 27.8532L18.6166 27.7742L18.8943 27.6953L19.053 27.6559C19.053 27.6559 19.172 27.6164 19.053 27.6559L19.0927 27.6164L19.5687 27.4586C20.1638 27.2219 20.7589 26.9063 21.2746 26.5512C22.306 25.8411 23.0201 24.8548 23.4962 23.7501C23.6945 23.1978 23.8929 22.606 24.0119 22.0142C24.0913 21.6986 24.0912 21.383 24.1309 21.1068C24.1706 20.7912 24.1706 20.5151 24.1706 20.1994V19.6866V19.4104V19.3315C24.1706 19.3315 24.1706 19.2526 24.1706 19.3315V19.2131C24.131 18.937 24.1309 18.6608 24.0913 18.3847C23.9722 17.8718 23.8532 17.3589 23.6152 16.8855C23.1788 15.9386 22.5044 15.1496 21.711 14.5184C20.9175 13.8871 19.9654 13.4532 19.1323 13.2559L19.053 13.2164H19.0133C18.9737 13.2164 18.9736 13.2164 18.934 13.2164C18.934 13.177 18.7356 13.177 18.5769 13.177H18.4579C18.6563 13.177 18.4976 13.177 18.5372 13.177H18.4976H18.2992L17.9422 13.2164C17.4661 13.2559 17.0297 13.3348 16.5933 13.4532C14.9668 13.8871 13.975 15.0312 13.3403 16.3331C13.261 16.491 13.1816 16.6488 13.1419 16.8066C13.0626 16.9644 12.9833 17.2011 12.9436 17.3984L12.8245 17.714L12.7849 17.7929C12.8246 17.6745 12.7849 17.7929 12.7849 17.7534V17.7929L12.7452 17.9112C12.7056 18.069 12.7056 18.1874 12.6659 18.3058C12.6262 18.8581 12.5866 19.371 12.6659 19.8838C12.8246 20.9096 13.261 21.8959 13.6577 22.6849C14.0544 23.474 14.4114 24.1052 14.6495 24.5392C14.8875 24.9731 15.0462 25.2099 15.0462 25.2099L14.7685 25.92Z"
            fill="#253334" />
    </mask>
    <g mask="url(#mask0_1_568)">
        <rect x="-4" y="-1" width="44" height="42" fill="white" />
    </g>
</svg>
