<svg width="17" height="17" viewBox="0 0 17 17" fill="none" xmlns="http://www.w3.org/2000/svg">
<path d="M4.32432 4.59088L2.85151 4.70467C2.44169 4.73634 2.07669 4.95113 1.85004 5.29395L0.15148 7.86293C-0.0204115 8.12291 -0.0477375 8.44827 0.078334 8.73328C0.204439 9.01829 0.463588 9.21691 0.771545 9.26463L2.12008 9.47347C2.43554 7.79938 3.19071 6.12941 4.32432 4.59088Z" fill="white"/>
<path d="M7.52649 14.8799L7.73537 16.2284C7.78308 16.5364 7.9817 16.7955 8.26668 16.9216C8.38525 16.9741 8.51076 17 8.63563 17C8.81104 17 8.98523 16.9489 9.13706 16.8485L11.7061 15.1499C12.0489 14.9233 12.2637 14.5582 12.2953 14.1485L12.4091 12.6757C10.8706 13.8093 9.20061 14.5645 7.52649 14.8799Z" fill="white"/>
<path d="M7.01934 13.9452C7.06616 13.9452 7.11324 13.9414 7.16022 13.9335C7.8616 13.8163 8.53761 13.6187 9.18248 13.3601L3.63991 7.81757C3.38133 8.4624 3.18377 9.13841 3.0665 9.83982C3.02028 10.1163 3.11302 10.398 3.3112 10.5962L6.40386 13.6888C6.56841 13.8534 6.79051 13.9452 7.01934 13.9452Z" fill="white"/>
<path d="M15.6446 7.53717C17.0009 4.915 17.0511 2.14401 16.9803 0.84445C16.956 0.399166 16.601 0.0441599 16.1557 0.0198886C15.9441 0.00833394 15.6933 0 15.4106 0C13.9575 0 11.6581 0.220102 9.46294 1.35554C7.71839 2.2579 5.43081 4.2448 4.08118 6.85594C4.09711 6.86839 4.11269 6.88161 4.12736 6.89628L10.1039 12.8728C10.1186 12.8875 10.1317 12.903 10.1442 12.919C12.7553 11.5693 14.7422 9.28171 15.6446 7.53717ZM9.88455 3.59389C10.8554 2.623 12.4353 2.6229 13.4062 3.59389C13.8766 4.0642 14.1356 4.68958 14.1356 5.35474C14.1356 6.01989 13.8766 6.64527 13.4062 7.11559C12.9208 7.60098 12.283 7.84373 11.6454 7.84379C11.0076 7.84383 10.3701 7.60111 9.88455 7.11559C9.4142 6.64527 9.15515 6.01989 9.15515 5.35474C9.15515 4.68958 9.4142 4.0642 9.88455 3.59389Z" fill="white"/>
<path d="M10.5887 6.41127C11.1713 6.99382 12.1192 6.99385 12.7018 6.41127C12.984 6.12904 13.1394 5.75384 13.1394 5.35474C13.1394 4.95564 12.984 4.58044 12.7018 4.29825C12.4105 4.00696 12.0279 3.86133 11.6453 3.86133C11.2627 3.86133 10.88 4.00696 10.5888 4.29825C10.3066 4.58044 10.1511 4.95564 10.1511 5.35474C10.1511 5.75384 10.3065 6.12907 10.5887 6.41127Z" fill="white"/>
<path d="M0.508196 14.0096C0.635663 14.0096 0.76313 13.961 0.860349 13.8637L2.48641 12.2377C2.68091 12.0432 2.68091 11.7278 2.48641 11.5333C2.29194 11.3388 1.97657 11.3388 1.78207 11.5333L0.15601 13.1594C-0.0384942 13.3539 -0.0384942 13.6692 0.15601 13.8637C0.253262 13.961 0.380729 14.0096 0.508196 14.0096Z" fill="white"/>
<path d="M3.97659 13.0235C3.78211 12.829 3.46675 12.829 3.27225 13.0235L0.146 16.1497C-0.048504 16.3443 -0.048504 16.6596 0.146 16.8541C0.243252 16.9513 0.370719 16.9999 0.498187 16.9999C0.625654 16.9999 0.753121 16.9513 0.85034 16.8541L3.97655 13.7278C4.17109 13.5333 4.17109 13.218 3.97659 13.0235Z" fill="white"/>
<path d="M4.76238 14.5137L3.13636 16.1397C2.94185 16.3342 2.94185 16.6496 3.13636 16.8441C3.23361 16.9413 3.36108 16.99 3.48851 16.99C3.61594 16.99 3.74344 16.9414 3.84066 16.8441L5.46672 15.218C5.66123 15.0235 5.66123 14.7082 5.46672 14.5137C5.27225 14.3192 4.95689 14.3192 4.76238 14.5137Z" fill="white"/>
</svg>
