<svg width="36" height="35" viewBox="0 0 36 35" fill="none" xmlns="http://www.w3.org/2000/svg">
<path d="M35.0365 16.6929C35.0165 16.5125 34.9964 16.322 34.9663 16.1415C34.9162 15.7405 34.8761 15.3294 34.816 14.9184C34.4049 12.0109 33.3321 9.34402 31.6478 7.00801C30.2041 4.99283 28.3694 3.35864 26.2138 2.15554C24.2588 1.06273 22.1033 0.380975 19.7973 0.120304C19.1356 0.0400982 18.4539 0 17.7922 0C16.6192 0 15.4562 0.120307 14.2932 0.360926V0.350902L14.1228 0.401031C13.8521 0.461186 13.5914 0.521331 13.3207 0.591511C12.9798 0.681743 12.6289 0.792037 12.288 0.90232C11.9772 0.992552 11.7166 1.07276 11.4659 1.16299C8.74893 2.13549 6.38284 3.76969 4.42781 6.02549C2.47278 8.27127 1.14938 10.8679 0.477658 13.7253C0.00644596 15.7405 -0.113865 17.7557 0.106703 19.7207C0.337296 21.7259 0.848605 23.6007 1.63062 25.285C2.48281 27.1097 3.6458 28.7339 5.07949 30.1074C6.68361 31.6414 8.56846 32.8344 10.8443 33.7568C11.8369 34.1578 12.8094 34.3483 13.7117 34.4887C14.1829 34.5889 14.6742 34.6691 15.1554 34.7293C15.3258 34.7493 15.4862 34.7694 15.6567 34.7895C16.178 34.8797 16.8397 34.9198 17.6318 34.9198C17.9526 34.9198 18.2634 34.9098 18.5541 34.8997L18.3135 35L19.3562 34.8596C19.7973 34.8296 20.1482 34.7794 20.3287 34.7494L20.3788 34.7393C20.4089 34.7293 20.429 34.7193 20.449 34.7093C21.7724 34.5188 23.0457 34.208 24.2287 33.7668C25.8028 33.1753 27.2665 32.3833 28.5599 31.3907C30.1038 30.2077 31.4172 28.774 32.4398 27.1097C33.4625 25.4655 34.1643 23.721 34.5352 21.9063C34.6555 21.3048 34.7458 20.6932 34.826 20.0917C34.8661 19.8109 34.9062 19.5402 34.9463 19.2595C34.9563 19.2094 34.9663 19.1492 34.9764 19.0991L34.9964 19.0089L35.0064 16.7531L35.0365 16.6929ZM21.2811 5.35376V5.08307V5.35376C22.5845 5.35376 23.6673 6.44658 23.6573 7.72988C23.6472 9.01318 22.5644 10.106 21.2811 10.106C19.9978 10.106 18.9151 9.01318 18.9151 7.72988C18.9251 6.44658 20.0079 5.35376 21.2811 5.35376ZM23.9179 31.1701C23.0156 32.5437 21.8125 33.5463 20.3588 34.1578C20.038 34.1979 19.7071 34.238 19.3762 34.2681C18.2133 34.3684 17.0102 34.3583 15.777 34.228C15.3459 34.1478 14.9248 34.0876 14.5137 34.0275C14.2932 33.9974 14.0726 33.9673 13.852 33.9272C12.5888 33.6666 11.3657 33.2655 10.2127 32.7442C8.94945 32.1727 7.77643 31.4509 6.72372 30.6087C5.76124 29.8367 4.89903 28.9745 4.15712 28.0321C3.26483 26.8992 2.52292 25.656 1.96147 24.3225C1.44013 23.0693 1.08923 21.8763 0.888718 20.6531C0.818538 20.1919 0.758381 19.7107 0.698226 19.2395C0.668149 19.0289 0.648092 18.8184 0.618015 18.6078V16.6227C0.618015 16.6127 0.618012 16.6127 0.628038 16.6027C0.638064 16.5526 0.658121 16.4924 0.658121 16.4222C0.768404 15.0587 1.02907 13.7253 1.4301 12.4821C1.95144 10.8679 2.70338 9.34402 3.6859 7.95044C4.86894 6.26611 6.34274 4.80235 8.05715 3.60928C9.44071 2.64681 10.9245 1.90489 12.4785 1.38355C12.7392 1.30334 13.0099 1.23317 13.2806 1.16299C13.4109 1.12289 13.5513 1.09281 13.6816 1.05271C13.6415 1.34345 13.6114 1.62418 13.5713 1.9049C13.451 2.80722 13.3407 3.66943 13.2505 4.53165C13.0801 6.02549 12.9397 7.81008 13.1502 9.63477C13.3307 11.2188 13.7618 12.5322 14.4536 13.6651C15.1153 14.7479 15.9374 15.6703 16.9099 16.3922C17.8824 17.124 18.895 17.8359 19.9277 18.4875C20.2585 18.6981 20.6094 18.8485 20.9603 18.9989C21.2009 19.0991 21.4315 19.1994 21.6521 19.3197C23.0958 20.0816 24.1385 20.994 24.8403 22.1169C25.4719 23.1295 25.7727 24.2824 25.7326 25.5357C25.6424 27.5809 25.0408 29.4658 23.9179 31.1701Z" fill="#263435"/>
<path d="M14.273 22.1269H14.2329C12.6287 22.1269 11.3755 23.3501 11.3254 24.9843C11.2853 26.5683 12.5686 27.8917 14.1927 27.9318C14.2128 27.9318 14.2429 27.9318 14.273 27.9318C15.827 27.9318 17.1103 26.6385 17.1403 25.0444C17.1504 24.2824 16.8596 23.5506 16.3182 22.9991C15.7768 22.4477 15.055 22.1369 14.273 22.1269Z" fill="#263435"/>
</svg>
