<svg width="283" height="218" viewBox="0 0 283 218" fill="none" xmlns="http://www.w3.org/2000/svg">
<path fill-rule="evenodd" clip-rule="evenodd" d="M279.301 100.057C275.183 115.691 266.901 132.739 250.214 137.722C246.157 138.934 242.211 139.848 237.997 139.387C237.596 139.343 237.261 139.399 236.879 139.407C236.196 139.42 236.786 139.665 236.019 139.429C235.422 139.244 234.862 138.782 234.24 138.578C232.584 138.037 230.819 137.932 229.136 137.494C225.001 136.419 220.74 135.091 216.733 133.607C214.847 132.909 213.113 131.936 211.339 131C209.535 130.05 207.623 129.459 205.799 128.587C204.357 127.898 201.888 126.999 200.874 125.706C199.794 124.327 201.289 121.391 201.716 119.925C203.169 114.937 204.9 110.022 205.993 104.934C209.764 109.305 214.999 112.012 220.418 113.758C223.359 114.706 226.384 115.39 229.442 115.819C232.219 116.208 235.215 116.679 237.998 116.127C240.099 115.71 242.737 114.744 244.238 113.14C244.773 112.567 245.416 111.518 245.116 110.686C244.735 109.63 243.625 110.127 243.024 109.339C242.501 108.653 242.583 107.048 242.416 106.212C242.121 104.733 241.716 103.295 241.221 101.871C240.261 99.1065 239.065 96.3359 238.778 93.3943C238.529 90.8422 239.11 88.4289 240.383 86.2144C240.985 85.1675 242.496 82.3196 243.97 82.4378C245.59 82.5676 243.406 89.392 243.335 90.7842C243.052 96.3026 243.792 102.183 246.624 107.02C247.708 108.872 249.276 111.028 251.591 111.258C254.043 111.5 256.021 109.571 257.188 107.619C260.036 102.857 258.6 96.3218 257.158 91.3303C255.388 85.2063 250.771 80.9852 247.851 75.4853C252.21 75.9236 254.545 78.6928 256.782 82.2063C259.245 86.0743 261.162 90.7186 262.108 95.2192C262.585 97.4931 262.256 99.7766 262.259 102.073C262.26 102.836 262.26 105.65 263.504 105.539C264.833 105.421 265.289 102.247 265.484 101.278C265.932 99.0573 266.417 96.836 266.806 94.6041C267.495 90.655 267.801 86.6105 268.626 82.6889C268.765 82.026 269.042 80.1866 270.035 80.6833C270.8 81.0656 270.677 83.9103 270.705 84.5715C270.774 86.201 270.871 87.8302 270.884 89.4614C270.903 91.8788 270.421 94.3811 270.658 96.7838C270.812 98.3539 271.655 100.088 272.699 97.9713C273.735 95.8715 273.946 93.2528 274.524 90.9947C275.131 88.624 275.757 86.2182 277.045 84.1126C277.402 83.5284 277.786 82.601 278.579 82.8758C279.156 83.0757 279.582 84.4427 279.76 84.9253C280.565 87.1058 280.428 89.5301 280.378 91.8129C280.315 94.6099 280.015 97.3451 279.301 100.057ZM198.999 104.114C198.779 104.043 197.844 103.954 197.612 103.934C197.34 103.91 197.649 103.41 196.991 103.552C197.118 103.867 197.343 104.077 197.668 104.182C196.679 104.517 195.949 103.691 195.273 103.584C194.627 103.482 194.599 103.584 193.96 104.267C193.269 103.424 193.398 103.95 192.829 103.95C192.623 103.951 192.614 104.263 192.277 104.226C191.983 104.193 191.952 103.747 191.778 103.694C190.834 103.409 189.863 104.846 188.793 103.599C188.534 104.896 185.562 103.272 184.419 103.5C183.22 103.738 183.737 104.168 182.769 103.433C181.846 102.734 182.103 103.198 181.03 103.771C181.055 103.758 180.424 104.184 180.483 104.191C179.74 104.104 179.782 103.335 178.841 103.376C177.845 103.42 177.419 104.2 176.508 103.24C176.31 103.959 176.269 103.649 175.801 103.83C175.544 103.892 175.32 103.824 175.127 103.628C175.069 103.826 174.94 103.947 174.742 103.992C174.233 104.038 173.278 104.108 172.816 103.863C172.122 103.496 172.68 103.354 172.199 102.941C171.983 104.081 171.511 103.839 170.515 103.945C169.755 104.027 169.587 103.793 168.861 103.68C168.146 103.568 167.223 103.846 166.525 103.964C166.237 104.013 165.852 104.214 165.559 104.143C165.294 104.08 165.181 103.875 165.023 103.821C164.832 103.757 164.873 103.589 164.542 103.508C164.314 103.452 163.905 103.666 163.677 103.703C162.051 103.967 160.489 103.97 158.938 103.33C159.702 104.673 157.153 103.948 156.698 103.392C156.13 104.282 155.443 103.654 154.298 103.723C153.195 103.79 151.537 104.128 151.09 102.755C151.002 103.034 150.377 103.844 150.128 103.967C149.405 104.326 149.319 103.796 148.647 103.58C147.732 103.286 147.923 103.844 147.356 103.957C146.398 104.149 145.881 103.475 145.034 103.116C144.999 103.673 144.98 104.016 144.498 104.363C144.072 102.81 142.549 104.49 142.811 102.414C142.231 102.791 141.416 103.081 141.251 103.844C142.22 103.577 141.354 104.211 141.314 104.232C141.186 104.299 140.753 103.691 140.653 103.606C140.625 103.892 140.598 104.179 140.571 104.465C140.185 104.272 139.822 103.927 139.509 103.753C139.227 103.598 139.631 103.273 139.154 103.251C138.903 103.239 138.641 103.783 138.377 103.829C137.974 103.9 138.167 103.321 137.999 103.341C137.741 103.37 137.322 103.747 137.128 103.739C136.49 103.716 136.922 103.419 136.435 103.283C135.566 103.039 135.621 103.608 134.996 103.813C133.566 104.283 133.71 102.122 132.255 103.563C131.907 103.908 131.683 104.44 131.206 104.411C130.218 104.349 130.565 103.178 130.766 102.605C130.973 102.707 127.157 104.667 127.188 104.591C127.212 104.12 127.812 103.758 127.275 103.341C126.837 104.281 126.376 104.298 125.364 104.473C124.873 104.558 124.776 104.672 124.25 104.468C123.915 104.338 123.69 103.803 123.357 103.774C123.402 103.778 122.79 104.243 122.697 104.285C122.145 104.534 121.795 104.252 121.259 104.354C120.802 104.441 120.622 104.83 120.167 104.724C119.559 104.582 119.916 103.857 119.081 104.059C118.795 104.128 118.624 104.678 118.173 104.792C117.472 104.97 116.612 104.639 115.871 104.811C115.283 104.949 114.846 105.007 114.332 105.035C113.916 105.059 114.087 104.735 113.322 105.117L112.997 104.299C112.615 104.644 112.231 104.988 111.849 105.332C111.776 105.024 111.73 104.711 111.71 104.394C111.139 104.967 110.42 105.064 109.652 105.116C108.82 105.171 108.201 105.353 107.392 105.505C107.136 105.553 106.477 105.629 106.267 105.54C106.298 105.553 105.873 105.376 106.001 105.41C105.946 105.298 105.895 105.184 105.848 105.068C105.776 104.745 105.544 104.731 105.152 105.025C104.949 104.994 104.555 104.728 104.353 104.793C103.831 104.962 103.902 105.367 103.382 105.308C103.045 105.269 102.872 104.771 102.521 104.737C101.983 104.685 101.518 105.287 101.033 105.418C102.506 105.018 99.1229 105.328 100.175 105.356C99.4852 105.338 98.7692 105.304 98.1318 105.613C97.7798 105.372 98.2073 104.888 97.8515 104.689C97.5287 104.508 97.504 104.985 97.4662 104.996C97.6697 104.938 97.5681 105.344 97.3643 105.416C96.7297 105.641 96.2219 105.069 96.189 104.502C95.6497 105.314 95.4984 104.987 94.7052 105.037C93.923 105.087 93.2485 105.497 92.466 105.489C90.9184 105.475 89.8682 104.937 89.3516 103.555C91.0007 103.756 92.6605 102.696 94.2729 102.945C94.803 103.027 95.134 103.425 95.5982 103.355C96.1705 103.268 96.5698 102.644 97.3033 102.576C98.9212 102.428 100.516 102.573 102.145 102.325C104.091 102.028 106.122 101.853 108.086 101.997C109.604 102.109 110.833 101.528 112.373 101.416C114.363 101.271 116.37 101.246 118.364 101.141C120.413 101.034 122.617 100.707 124.66 100.812C125.298 100.844 125.847 100.907 126.48 100.869C126.748 100.852 127.001 100.671 127.282 100.698C127.648 100.733 127.805 101.108 128.184 101.095C128.829 101.073 129.519 100.541 130.285 100.527C131.545 100.503 132.8 100.506 134.064 100.434C135.176 100.371 136.368 100.111 137.476 100.125C138.257 100.135 138.45 100.801 138.905 100.869C139.724 100.993 143.864 98.6362 144.222 100.751C146.378 99.2758 149.269 100.525 151.669 100.248C154.752 99.8917 157.891 100.209 160.994 100.082C164.152 99.9532 167.401 100.073 170.547 100.37C171.85 100.494 173.108 100.61 174.415 100.535C174.997 100.501 175.671 100.353 176.253 100.487C176.394 100.52 177.475 101.274 177.34 101.295C177.931 100.766 177.531 100.688 178.569 100.661C179.369 100.64 180.126 100.813 180.922 100.86C182.35 100.944 183.789 100.746 185.214 100.79C186.404 100.826 187.567 101.002 188.763 101.01C190.052 101.02 191.575 101.056 192.508 102.095C192.409 101.769 192.311 101.443 192.212 101.117C193.651 101.229 195.074 101.743 196.529 101.503C196.16 101.855 195.787 102.143 195.646 102.66C196.431 102.561 196.962 102.013 197.788 102.009C198.482 102.004 198.626 102.352 199.359 101.903C199.449 102.454 199.539 103.005 199.629 103.555C200.643 103.317 199.978 102.56 200.052 101.878C200.876 102.126 201.574 101.842 201.25 103.028C200.999 103.942 199.857 104.393 198.999 104.114ZM197.573 114.3C197.219 115.293 194.16 114.725 193.436 114.62C192.502 114.485 191.432 114.27 190.571 114.164C190.468 114.026 190.344 113.909 190.2 113.813C190.092 113.964 189.955 114.071 189.789 114.134C189.394 114.221 189.393 114.629 188.873 114.538C188.849 115.142 189.268 114.799 189.59 115.018C188.78 115.561 189.15 114.936 188.696 114.946C188.584 114.786 188.427 114.724 188.226 114.758C187.97 114.824 187.734 114.934 187.518 115.087C187.316 115.3 187.142 115.311 186.998 115.12C186.86 114.981 186.691 114.895 186.492 114.862C185.694 114.992 185.471 115.346 184.573 115.288C183.289 115.206 181.901 115.544 180.638 115.366C179.855 115.255 178.547 114.025 178.191 115.225C177.65 114.336 176.788 113.731 176.27 112.823C178.684 112.683 181.097 112.517 183.513 112.43C185.628 112.353 187.942 112.591 189.919 112.492C191.771 112.398 193.732 112.194 195.623 112.025C197.627 111.846 198.29 112.285 197.573 114.3ZM134.595 114.446C135.472 114.689 136.307 114.139 137.157 114.313C137.438 114.37 138.02 114.882 138.147 114.892C138.381 114.911 139.07 114.408 139.365 114.341C141.232 113.916 143.494 113.961 145.361 114.222C146.35 114.36 146.502 113.908 147.365 113.688C148.263 113.459 149.538 113.635 150.483 113.572C152.706 113.423 154.929 113.529 157.137 113.367C159.404 113.2 161.66 113.109 163.928 112.993C165.473 112.913 169.185 112.032 170.466 113.179C171.522 114.124 170.161 115.766 169.105 116.141C168.315 116.421 167.937 115.831 167.351 115.887C166.683 115.951 166.915 116.74 166.32 116.009C165.95 116.736 163.629 116.426 162.964 116.474C161.514 116.579 160.288 116.87 159.301 115.518C159.368 115.907 159.435 116.298 159.502 116.687C158.194 115.988 156.789 116.212 155.653 116.456C155.091 116.576 153.365 117.41 152.756 117.051C152.336 116.804 153.075 116.38 152.368 116.169C151.997 116.059 151.357 116.674 150.904 116.643C149.651 116.557 150.006 115.714 148.775 116.787C148.358 116.426 148.219 115.813 148.274 115.287C147.38 116.05 147.455 117.321 145.856 117.089C145.26 117.002 145.15 116.394 144.839 116.282C144.178 116.043 144.103 116.473 143.529 116.813C143.313 116.941 143.049 117.147 142.794 117.173C142.271 117.225 142.188 116.985 142.116 116.993C141.768 117.031 141.329 117.208 140.915 117.082C140.545 116.968 140.436 116.314 139.783 116.467C139.157 116.613 139.152 117.038 139.266 117.674C138.649 117.61 138.276 117.267 137.814 116.895C137.348 117.981 136.368 117.081 135.826 117.998C135.119 117.154 134.666 117.386 133.789 116.562C133.832 116.906 133.875 117.25 133.918 117.594C133.234 117.462 132.93 116.98 132.346 117.618C131.78 116.563 130.062 118.066 129.18 117.047C128.787 118.338 126.186 118.029 125.087 118.051C124.113 118.071 123.392 117.992 122.441 118.218C121.6 118.418 120.435 118.625 119.644 118.533C119.128 118.474 118.563 118.379 117.919 118.449C116.991 118.549 116.19 119.03 115.228 118.803C113.781 118.46 112.894 116.559 114.506 115.724C115.609 115.153 117.597 115.364 118.811 115.259C120.823 115.084 123.078 114.718 125.093 114.884C126.664 115.014 128.097 114.639 129.7 114.481C130.908 114.362 132.886 114.147 133.673 115.343C133.976 114.994 133.944 114.266 134.595 114.446ZM112.568 130.824C112.352 129.747 121.551 129.155 122.464 129.084C124.381 128.937 126.304 128.831 128.225 128.783C129.805 128.742 131.279 129.044 132.859 128.801C134.334 128.575 136.115 128.111 137.399 129.156C137.588 127.727 143.125 128.423 144.179 128.427C148.765 128.444 153.153 128.454 157.589 128.17C160.124 128.008 162.816 127.79 165.351 127.916C166.495 127.974 167.416 128.278 168.553 128.014C169.295 127.841 170.094 127.482 170.804 127.99C171.634 128.584 171.989 130.601 171.417 131.443C171 132.056 170.632 131.988 169.966 131.882C168.943 131.719 168.183 131.483 167.14 131.899C167.309 131.831 166.441 132.025 166.513 132.019C165.331 132.107 163.71 132.933 162.692 131.981C163.1 132.053 163.693 131.325 163.178 131.265C162.792 131.22 162.547 131.634 162.246 131.773C161.215 132.247 160.687 132.099 160.071 131.104C158.83 132.178 158.696 131.881 158.151 130.557C157.731 130.881 157.641 131.645 157.31 131.896C157.261 131.933 157.465 132.398 157.226 132.379C157.005 132.361 156.932 131.998 156.762 131.969C156.654 131.951 156.597 131.633 156.493 131.614C156.38 131.593 156.264 131.796 156.136 131.79C155.795 131.774 154.819 132.5 155.169 131.481C154.652 132.138 154.43 131.719 154.243 131.121C153.646 131.574 153.05 132.028 152.453 132.482C152.175 131.71 151.697 131.92 151.096 132.19C151.278 131.654 151.164 131.147 150.71 131.519C150.447 131.735 150.27 132.42 150.001 132.711C148.911 131.607 148.515 131.91 147.009 132.054C146.434 132.108 145.72 132.214 145.207 131.867C144.755 131.562 144.5 130.442 143.728 131.347C143.9 131.146 143.631 132.691 143.583 132.937C143.243 132.707 142.954 132.425 142.715 132.09C142.271 132.97 141.105 132.181 140.15 132.36C138.645 132.643 137.094 133.12 135.765 132C135.671 132.362 134.582 132.822 134.581 132.836C134.645 132.196 135.049 132.421 134.224 132.3C134.073 132.277 133.901 132.55 133.757 132.58C133.266 132.682 132.691 132.585 132.196 132.571C130.135 132.512 128.248 132.969 126.212 133.134C125.526 133.19 124.712 133.299 124.068 133.041C123.405 132.774 123.423 132.471 122.751 132.643C122.964 132.589 122.332 133.253 122.366 133.228C122.276 133.293 121.899 132.969 121.765 132.994C121.726 133.135 121.688 133.277 121.648 133.418C121.486 133.398 121.325 133.378 121.163 133.358C120.72 133.418 120.321 132.97 119.905 132.955C119.982 132.958 118.783 133.404 118.838 133.431C118.001 133.014 118.241 133.135 117.18 133.389C116.176 133.629 115.177 133.573 114.147 133.723C111.153 134.157 112.937 132.657 112.568 130.824ZM109.924 145.795C109.361 144.997 110.859 144.721 111.337 144.65C112.124 144.534 113.168 144.765 113.693 144.64C114.492 144.45 115.262 143.997 116.162 143.874C117.296 143.718 118.44 143.693 119.579 143.596C119.959 143.563 120.429 143.433 120.798 143.455C121.348 143.488 121.576 143.779 122.02 143.781C122.776 143.785 123.71 143.307 124.485 143.22C125.477 143.107 126.48 143.054 127.477 143.005C129.578 142.9 131.658 142.944 133.758 142.941C134.716 142.94 137.267 141.946 137.745 143.061C138.409 142.216 140.112 142.331 141.062 142.307C142.734 142.264 144.39 142.102 146.061 142.025C147.492 141.958 149.091 142.264 150.496 142.05C151.27 141.932 151.527 141.684 152.405 141.796C153.058 141.878 154.052 141.533 154.613 141.686C154.583 141.678 155.311 142.129 155.084 142.143C155.334 142.127 155.32 142.302 155.595 142.224C155.958 142.122 155.791 141.667 156.542 141.505C157.713 141.252 159.274 141.545 160.491 141.48C161.671 141.417 162.849 141.39 164.031 141.395C164.574 141.398 165.247 141.268 165.776 141.374C166.035 141.426 166.586 141.764 166.806 141.73C167.428 141.633 167.745 141.201 168.587 141.227C169.541 141.258 170.4 141.245 171.348 141.172C172.267 141.102 172.414 140.97 172.87 141.735C173.321 142.493 173.445 143.48 172.615 143.995C173.154 143.96 173.818 144.682 173.182 145.082C172.789 145.329 172.002 144.771 171.531 144.812C170.952 144.861 170.497 145.168 169.866 145.187C169.203 145.207 168.53 145.374 167.876 145.387C167.195 145.4 166.68 145.096 166.034 145.225C165.466 145.34 165.406 145.805 164.721 145.396C164.381 145.193 164.324 144.439 163.86 144.432C163.238 144.422 163.486 145.226 163.128 145.598C163.032 144.449 162.145 146.35 161.793 144.956C161.468 145.419 160.264 146.066 159.681 145.694C159.15 145.355 159.326 144.588 159.105 144.035C158.737 145.029 157.748 146.06 157.837 144.251C157.357 144.842 156.059 144.748 156.385 145.783C155.993 145.775 155.901 145.217 155.571 145.175C155.287 145.138 155.062 145.357 155.018 145.353C155.174 145.366 154.553 145.573 154.543 145.575C154.964 145.49 153.329 145.344 153.608 145.346C153.229 145.343 152.764 145.654 152.321 145.653C151.917 145.652 151.516 145.493 151.117 145.447C150.083 145.329 150.298 145.556 149.65 145.881C149.409 146.001 149.349 146.205 149.007 146.179C148.756 146.161 148.661 145.832 148.633 145.829C148.279 145.793 148.54 145.674 147.99 145.729C147.927 145.838 147.864 145.946 147.801 146.055C147.603 146.309 147.345 146.372 147.029 146.246C146.215 146.42 143.516 147.177 143.78 145.776C143.366 145.978 142.953 146.18 142.539 146.382C142.362 145.253 140.115 146.751 139.613 146.826C138.969 146.923 138.909 146.676 138.3 146.544C138.191 146.52 137.971 146.883 137.713 146.831C137.046 146.696 136.926 146.63 136.812 145.904C136.336 146.795 135.94 146.396 135.076 146.543C134.885 146.575 134.763 146.952 134.488 146.887C134.291 146.84 134.285 146.479 134.149 146.432C134.026 146.39 134.045 146.105 133.864 146.064C133.657 146.017 132.95 146.597 132.747 146.686C132.29 146.888 131.539 147.221 131.093 147.121C130.541 146.998 130.786 146.589 130.006 146.635C128.776 146.707 128.263 147.754 127.497 146.104C127.152 146.765 127.196 146.944 126.641 147.162C126.231 147.324 125.193 147.155 124.653 147.135C122.348 147.05 120.081 147.836 117.795 147.63C116.79 147.54 115.942 147.339 114.928 147.503C113.863 147.676 112.82 147.93 111.739 148.033C111.19 148.084 110.041 148.242 109.772 147.54C109.534 146.921 110.42 146.499 109.924 145.795ZM114.445 171.16C111.455 173.16 108.978 175.892 106.232 178.205C103.48 180.524 101.295 183.102 98.8197 185.67C96.5307 188.044 94.428 190.29 91.6608 192.084C89.9097 193.219 88.3477 194.617 86.549 195.687C85.2017 196.489 83.1608 197.544 83.8181 195.091C84.4919 192.578 85.7356 190.038 86.8156 187.691C88.3508 184.355 89.8981 181.049 91.5592 177.776C92.1836 176.547 92.5329 175.322 93.523 174.343C94.6002 173.277 95.3546 171.885 96.5345 170.877C101.497 166.641 108.976 169.914 114.445 171.16ZM123.825 172.596C122.469 173.307 120.951 173.483 119.513 173.954C118.288 174.354 117.149 175.067 115.832 175.119C117.031 174.219 118.061 172.995 119.413 172.312C120.934 171.543 122.315 172.103 123.825 172.596ZM183.361 178.522C178.372 176.838 173.727 174.358 168.867 172.361C168.028 172.016 161.468 169.856 161.601 168.827C166.198 167.985 170.933 166.54 175.542 168.116C179.734 169.549 183.144 172.988 186.39 175.866C187.236 176.617 192.473 180.037 192.005 181.126C191.68 181.881 189.157 181.675 188.561 181.52C187.791 181.32 187.348 180.853 186.744 180.339C185.735 179.482 184.618 178.946 183.361 178.522ZM174.151 150.396C174.909 149.698 175.362 148.64 176.086 147.997C177.016 147.17 178.517 147.573 179.534 148.002C182.585 149.291 185.192 151.459 188.224 152.804C191.584 154.295 194.493 156.287 197.524 158.34C200.294 160.216 203.29 161.77 206.117 163.561C208.999 165.386 212.224 166.572 215.145 168.333C218.118 170.125 221.079 171.924 223.936 173.898C229.03 177.419 234.334 181.035 238.102 186.041C240.039 188.614 241.853 191.533 243.274 194.422C244.566 197.049 245.967 200.695 244.293 203.427C242.685 206.051 239.944 208.118 237.624 210.076C236.746 210.817 235.91 211.718 234.772 212.039C233.387 212.43 231.77 212.322 230.346 212.437C222.73 213.055 215.634 212.472 208.128 211.11C200.891 209.797 193.624 209.061 186.331 208.148C182.217 207.633 178.104 207.034 174.046 206.176C172.311 205.809 170.546 205.387 168.848 204.887C167.366 204.451 166.119 203.491 164.595 203.11C158.126 201.495 150.724 200.877 144.319 198.16C149.987 195.804 156.01 194.382 161.818 192.425C167.932 190.365 173.903 188.636 180.347 188.051C183.663 187.75 186.63 186.903 189.82 186.017C192.859 185.172 196.033 184.913 199.155 184.535C200.543 184.366 204.506 184.619 204.966 182.804C205.651 180.101 201.758 179.789 200.098 180.032C197.744 180.375 195.802 180.962 194 179.031C192.161 177.058 190.373 175.039 188.5 173.091C185.026 169.48 181.446 165.304 176.537 163.684C170.547 161.707 163.601 163.583 157.625 164.707C151.312 165.894 145.01 167.031 138.816 168.757C136.251 169.471 132.943 171.045 130.28 170.793C127.657 170.543 124.685 170.113 122.15 169.357C121.002 169.015 120.059 168.38 119.033 167.789C117.698 167.019 116.235 166.526 114.819 165.928C111.954 164.719 109.162 163.606 106.071 163.13C103.469 162.73 100.705 162.493 98.1826 163.405C95.7083 164.3 93.5158 166.123 91.7894 168.07C89.9142 170.185 88.3642 172.555 86.8272 174.918C86.0893 176.053 85.1887 177.043 84.4243 178.151C83.7828 179.083 83.4082 180.117 82.7292 181.022C81.2097 183.047 80.1781 185.637 79.2573 187.993C78.2343 190.609 77.0977 193.721 77.3419 196.567C77.4342 197.643 77.5306 199.068 77.9468 200.065C78.4761 201.334 79.2309 201.302 80.3188 201.78C82.1878 202.602 82.7121 204.875 85.1273 204.431C87.3929 204.016 89.3577 202.149 91.0107 200.661C93.1651 198.722 95.227 196.677 97.2885 194.64C99.4039 192.549 101.489 190.23 103.172 187.771C103.834 186.802 104.35 185.709 105.133 184.827C106.13 183.704 107.25 183.569 108.604 183.122C120.443 179.21 132.339 175.437 144.548 172.854C147.473 172.235 150.422 171.437 153.295 170.613C156.342 169.74 157.92 170.663 160.436 172.326C165.69 175.8 171.901 178.247 177.752 180.514C179.594 181.227 182.527 181.273 183.967 182.68C175.431 183.981 167.295 186.485 159.062 188.979C155.002 190.208 150.896 191.274 146.821 192.449C142.744 193.625 138.823 195.149 134.803 196.475C130.801 197.794 126.573 198.332 122.533 199.549C118.408 200.792 114.302 201.646 110.068 202.401C105.794 203.164 101.549 204.044 97.2601 204.727C95.2963 205.039 93.3329 205.364 91.3908 205.794C89.4905 206.215 87.6547 207.223 85.7448 207.456C77.216 208.5 68.8547 210.825 60.3592 212.139C54.0157 213.12 42.9801 214.489 38.8667 208.125C34.7303 201.725 39.805 194.259 44.3329 189.683C47.1467 186.839 50.3088 184.336 53.6264 182.109C57.1768 179.726 60.5928 177.153 64.1439 174.773C72.1804 169.388 80.8948 164.996 89.5289 160.668C93.6732 158.591 97.6772 156.364 101.709 154.084C103.709 152.953 104.817 154.779 106.398 156.019C107.642 156.995 109.927 159.401 111.667 158.289C111.734 158.689 111.802 159.09 111.868 159.491C112.378 159.258 112.888 159.026 113.398 158.794C113.741 159.692 113.7 160.25 114.657 160.721C115.245 161.011 116.498 161.36 117.058 160.849C117.173 161.204 117.287 161.559 117.401 161.913C117.891 161.876 117.985 160.475 118.078 160.147C118.917 161.372 120.077 162.397 121.552 162.743C121.56 162.663 121.313 161.656 121.323 161.65C121.79 161.364 122.378 162.588 122.626 162.85C123.446 163.718 123.935 163.583 124.841 162.882C124.907 162.954 125.214 163.754 125.259 163.74C125.455 163.678 125.827 162.968 125.868 162.904C125.811 163.837 127.612 164.025 128.248 163.824C128.105 163.551 127.963 163.278 127.82 163.004C130.036 162.709 130.905 165.062 133.032 164.943C134.604 164.854 133.343 164.511 134.232 163.837C135.009 163.249 135.148 164.536 135.224 164.495C135.372 164.339 135.487 164.161 135.569 163.96C135.856 165.061 138.146 166.05 137.91 164.238C138.811 164.598 139.45 165.196 140.447 165.323C141.659 165.476 142.953 165.219 144.162 165.119C146.767 164.902 149.222 164.371 151.57 163.177C152.962 162.47 154.444 161.828 155.753 160.974C156.848 160.26 158.925 158.091 160.383 159.025C160.01 157.924 161.768 158.944 161.824 157.525C162.106 157.738 162.389 157.951 162.671 158.164C162.84 157.793 162.793 157.208 163.02 156.884C163.331 156.44 163.483 156.701 163.749 156.451C164.046 156.172 164.305 155.423 164.661 155.209C165.029 154.99 165.461 155.252 165.855 155.06C166.457 154.768 169.044 151.915 168.606 154.359C169.718 153.981 168.86 153.636 168.999 152.895C169.278 151.409 169.958 152.478 170.634 152.608C171.742 152.82 171.72 151.904 172.337 151.239C172.901 150.631 173.962 150.359 173.596 149.303C174.014 149.528 174.103 149.968 174.151 150.396ZM107.371 118.672C106.499 119.644 105.845 119.229 104.875 119.086C104.771 118.738 104.594 118.69 104.343 118.941C104.055 119.107 103.746 119.215 103.415 119.267C102.62 119.463 101.793 119.38 101.015 119.677C101.037 119.416 101.311 118.953 101.135 118.688C100.317 119.254 99.8094 119.615 98.8042 119.625C97.9898 119.634 96.5602 119.012 95.884 119.755C95.8631 119.466 95.8421 119.177 95.8216 118.887C95.4905 119.052 95.2023 119.273 94.957 119.55C94.9107 119.121 94.885 118.796 94.6012 118.449C94.0633 119.556 93.4739 119.582 92.4286 119.159C92.5751 119.219 91.3822 118.52 91.4278 118.713C91.0508 117.124 97.0038 117.256 97.6289 117.193C99.1895 117.035 100.75 116.944 102.313 116.8C103.796 116.663 104.902 116.432 105.928 117.669C105.471 115.883 109.796 115.971 107.371 118.672ZM39.1171 90.9669C39.2811 93.6677 39.8822 96.5386 38.832 99.1381C37.9877 101.227 36.3036 103.587 34.4894 104.951C30.7746 107.743 27.6259 104.326 27.1089 100.572C26.5699 96.6557 27.6383 91.8706 31.0103 89.4559C33.0252 88.0133 34.9762 88.1132 37.2961 88.5876C37.8409 88.6992 38.7253 88.6563 39.0368 89.1976C39.1099 89.3243 39.0444 90.9645 39.1171 90.9669ZM88.4551 126.951C87.8136 127.275 87.1422 127.465 86.5764 127.906C86.3799 128.059 86.313 128.407 86.1044 128.536C85.7249 128.771 85.1825 128.615 84.787 128.809C84.1324 129.129 83.6631 129.587 82.885 129.881C81.7295 130.319 80.7164 130.92 79.6244 131.489C77.8047 132.438 75.852 133.252 73.9496 134.025C72.9894 134.415 70.3336 135.174 70.4256 136.58C70.2108 136.638 69.9913 136.169 69.5429 136.206C68.9271 136.257 68.1136 136.969 67.4745 137.144C66.2789 137.472 65.3533 137.501 65.3533 139.025C64.9728 138.766 64.8761 138.134 64.3697 138.05C63.7998 137.955 63.56 138.57 63.1041 138.762C62.5672 138.987 61.8996 138.771 61.3678 139.011C61.1352 139.256 60.8769 139.471 60.5924 139.654C60.3032 139.688 60.0154 139.679 59.7289 139.627C58.6002 139.867 57.5614 140.291 56.4299 140.512C55.3273 140.727 54.5722 140.806 55.0357 142.109C53.8562 142.34 53.568 141.089 52.2373 141.546C50.6059 142.107 49.0813 142.512 47.3783 142.854C46.51 143.028 45.6026 143.418 44.7277 143.509C44.1037 143.574 43.5211 143.351 42.9067 143.421C42.166 143.504 41.5708 143.847 40.8044 143.86C40.0774 143.872 39.314 143.742 38.6001 143.614C38.701 143.901 38.8272 144.177 38.9789 144.441C38.4852 144.338 38.2574 143.744 37.8388 143.656C37.3997 143.564 37.0062 144.017 36.6405 143.917C36.4847 143.874 36.5883 143.394 36.3098 143.302C36.0559 143.219 35.9488 143.317 35.697 143.278C35.613 143.265 34.5597 143.208 34.392 143.296C34.0987 143.452 34.3954 143.743 34.3371 143.786C33.3466 144.519 33.3346 144.124 32.8931 143.358C32.2447 142.234 31.4628 142.943 30.2844 142.747C28.9711 142.527 27.9364 143.107 26.6437 143.024C25.2494 142.936 23.6109 141.892 22.3783 141.283C19.7164 139.967 17.1207 138.722 14.8852 136.73C10.5151 132.835 6.95988 128.044 4.86371 122.56C2.61143 116.669 2.18465 110.524 2.36545 104.274C2.47421 100.515 2.77508 96.7581 3.36757 93.0429C3.77548 90.4874 3.86091 85.9462 6.74203 84.7824C7.23743 90.766 5.67439 96.8632 6.66004 102.808C6.95679 104.598 7.68068 106.984 9.05057 108.311C11.0788 110.274 11.5533 107.436 11.7368 105.868C12.0782 102.957 12.7125 100.062 13.1616 97.1647C13.6103 94.2685 13.9273 91.3399 14.5514 88.4742C14.7789 87.4293 16.6136 79.7775 17.9602 80.1399C17.6878 85.7064 16.9642 91.1771 16.9358 96.7642C16.9244 99.0051 16.7237 101.372 17.0473 103.598C17.2136 104.744 18.2569 108.105 20.0512 107.825C21.7117 107.566 19.8862 105.198 19.7311 104.285C19.3204 101.868 19.844 98.8605 20.2268 96.4613C20.9514 91.9211 22.568 87.271 25.2103 83.4769C27.5768 80.0794 31.2206 76.8452 35.6102 77.4442C37.4858 77.7005 38.949 78.1662 39.8914 79.8788C40.6308 81.2229 43.5434 82.75 41.8555 84.4328C40.3189 85.9647 37.8337 84.7385 36.1255 84.3733C34.0342 83.9261 31.7929 84.464 30.0439 85.6896C27.043 87.7917 25.3328 91.5501 24.7746 95.075C24.0223 99.8278 26.0334 112.268 33.4406 109.48C38.3613 107.628 42.0675 100.965 41.6545 95.8636C41.4888 93.8216 40.6905 89.945 43.5157 89.3937C47.1351 88.6875 47.6463 92.6775 47.2799 95.2701C46.7471 99.0415 44.7538 102.549 42.4734 105.53C40.486 108.129 38.1744 109.754 35.7828 111.901C35.0747 112.536 33.2688 113.965 33.572 115.147C33.9045 116.442 36.7427 116.81 37.8793 117.023C43.5016 118.075 49.8419 117.107 55.4546 116.372C66.9904 114.862 78.3746 111.141 87.8338 104.301C88.216 108.533 88.6976 112.751 88.875 116.999C88.9611 119.061 88.9831 121.153 89.2188 123.204C89.3639 124.465 89.8885 126.227 88.4551 126.951ZM56.4684 141.699C56.0155 141.936 56.5051 140.503 56.3792 140.977C57.0557 141.22 57.0856 141.461 56.4684 141.699ZM104.322 90.4785C105.041 89.686 107.005 87.801 107.629 89.5899C107.861 88.8273 107.891 87.6979 108.786 88.7277C109.143 87.4627 113.075 87.5812 114.049 87.5252C117.168 87.3469 120.3 87.2514 123.408 86.9416C129.794 86.3051 136.292 86.6335 142.701 86.6125C144.089 86.6081 145.474 86.5328 146.852 86.7341C148.181 86.9285 149.579 87.4736 150.934 87.2744C152.139 87.0972 152.929 86.765 154.169 86.9072C155.653 87.0773 157.094 87.1982 158.591 87.1927C165.213 87.1686 171.832 87.4369 178.456 87.4472C179.747 87.4493 181.293 87.1971 182.504 87.7453C182.953 87.9487 183.443 88.625 183.786 88.6992C184.179 88.784 183.946 88.1713 184.471 88.4481C185.176 88.8184 184.63 89.9574 184.165 90.1381C184.444 90.0299 183.662 89.9234 183.74 89.9193C183.37 89.9392 183.053 90.2236 182.655 90.2057C182.048 90.1793 181.541 89.8093 181.052 89.4837C181.044 89.6167 181.312 90.5032 181.005 90.5478C180.742 90.5867 180.494 89.7125 180.468 89.5091C178.986 90.8161 177.416 90.0876 175.577 90.2531C174.273 90.3706 171.554 91.2406 170.644 89.8791C170.606 90.1686 170.49 90.4221 170.296 90.6395C170.036 91.0356 169.811 91.0019 169.621 90.5375C169.557 90.5406 168.923 90.6784 168.911 90.6773C168.465 90.642 167.887 90.4819 167.433 90.4431C166.731 90.3833 166.861 90.8941 166.301 90.9023C165.996 90.9068 165.217 90.4658 164.685 90.4383C163.763 90.3902 162.821 90.7814 161.911 90.6629C161.284 90.5815 160.718 90.0718 160.104 90.0518C159.338 90.0264 159.09 90.6104 158.483 89.7901C158.359 89.7565 158.282 90.2391 158.232 90.2473C158.244 90.2452 157.655 90.3325 157.585 90.3596C157.464 90.406 156.993 90.6217 156.85 90.6241C156.54 90.6299 156.372 90.408 156.044 90.4029C155.5 90.3936 153.767 90.8717 153.815 89.8671C151.877 90.5853 150.223 90.3053 148.233 90.475C147.321 90.5533 146.747 90.4311 145.879 90.2634C144.791 90.0536 144.069 90.3174 142.984 90.3706C141.942 90.4218 141.614 89.9807 140.734 89.5826C140.387 89.4257 140.158 89.2186 139.732 89.3058C139.489 89.3556 139.662 89.7644 139.59 89.7922C139.216 89.9364 138.955 89.7836 138.443 89.8186C137.496 89.8832 137.119 90.6742 136.146 89.9316C136.469 89.8925 136.793 89.8526 137.117 89.8135C136.186 89.4191 134.958 89.2179 135.184 90.654C134.39 90.5427 135.077 90.0024 134.687 89.809C134.297 89.616 133.86 89.9392 133.369 90.0989C132.072 90.5197 130.99 90.3108 129.637 90.2353C128.1 90.1494 124.505 91.4035 123.404 89.7753C123.371 90.1185 123.003 91.0744 122.512 91.0294C122.352 91.0146 122.798 90 122.848 89.8925C122.596 90.43 121.444 90.532 120.876 90.811C120.94 90.5221 121.003 90.2332 121.067 89.9447C120.54 90.5059 120.284 90.1635 119.663 90.351C119.392 90.4331 119 90.9923 118.768 91.026C118.498 90.7127 118.158 90.5781 117.749 90.6217C117.477 90.5537 117.205 90.5403 116.934 90.5818C115.845 90.6609 114.852 91.2657 113.77 90.8539C112.832 90.4967 112.47 89.5785 111.911 91.0394C111.764 90.7797 111.617 90.52 111.47 90.2603C111.289 90.5424 111.107 90.824 110.926 91.1057C110.217 90.6413 110.173 90.3723 109.357 90.543C109.165 90.6193 108.969 90.6086 108.768 90.5107C108.72 90.654 108.672 90.7969 108.624 90.9398C108.604 91.2994 108.498 91.4182 108.304 91.296C108.14 91.2372 107.993 91.1483 107.861 91.0287C107.321 91.0699 106.632 91.2121 106.052 91.1335C105.829 91.1036 104.427 90.3634 104.322 90.4785ZM120.845 80.809C120.908 80.9066 120.972 81.0041 121.035 81.1017C120.159 81.5647 119.953 81.2988 119.862 80.3693C120.29 80.3776 120.363 81.1309 120.845 80.809ZM121.388 80.2635C121.81 80.4497 122.294 80.8155 122.691 80.3254C122.959 81.1034 120.971 82.1651 121.388 80.2635ZM124.114 80.607C125 81.2061 122.874 80.7245 122.878 80.7255C123.26 80.3728 123.672 80.3333 124.114 80.607ZM131.736 77.2673C132.04 78.8006 132.878 78.757 134.231 78.0443C136.204 77.0046 136.537 75.3019 136.675 73.2688C136.807 71.3195 137.045 70.5649 139.055 70.9719C140.458 71.256 141.645 71.0173 143.06 70.9781C144.569 70.9365 145.101 71.167 145.222 72.7203C145.344 74.2756 145.621 75.4565 146.749 76.6401C147.897 77.8434 149.427 78.5619 150.918 79.2352C151.685 79.581 152.405 79.9534 153.253 80.0283C153.582 80.0575 155.293 79.8411 155.329 80.3824C155.355 80.7894 152.986 81.9373 152.735 82.0741C151.636 82.6717 150.54 83.2079 149.34 83.5699C146.578 84.4032 143.65 84.4524 140.79 84.4019C136.178 84.3208 129.804 82.3701 127.047 78.2785C128.61 77.9416 130.173 77.6043 131.736 77.2673ZM131.322 63.9878C130.592 63.3754 130.12 62.4504 129.514 61.7253C129.208 61.3595 128.984 61.243 128.693 61.06C128.387 60.8673 128.214 61.14 127.959 60.6869C127.298 59.516 129.336 57.8683 127.175 57.4176C126.444 57.2648 124.684 57.8443 124.47 56.7966C124.168 55.3152 126.996 55.2183 127.661 54.4664C128.984 52.9716 128.086 50.4373 128.892 48.7127C129.654 47.0791 131.623 46.7888 133.177 46.298C135.342 45.6145 137.533 45.2181 139.732 44.6709C141.269 44.2886 143.823 42.7522 145.248 44.1097C143.049 44.5981 144.327 45.3647 145.794 45.7975C147.454 46.288 149.215 46.4794 150.936 46.6161C152.707 46.7565 154.512 46.7833 156.263 46.4302C157.881 46.1036 159.689 44.6967 161.387 45.057C160.445 46.6944 157.639 47.5888 155.935 48.0178C155.066 48.2363 154.51 48.1679 154.627 49.2509C154.74 50.3006 155.652 51.3531 155.858 52.4464C156.131 53.8935 155.893 55.2231 155.378 56.584C154.871 57.9229 154.753 58.0978 155.195 59.3772C155.885 61.3694 154.402 63.5712 153.032 65.018C147.489 70.8675 136.881 68.6517 131.322 63.9878ZM145.407 29.0272C145.43 29.087 145.411 29.0643 145.407 29.0272V29.0272ZM147.134 43.7895C146.904 43.9613 145.58 44.3212 145.635 43.804C145.709 43.1108 146.902 43.3612 147.134 43.7895ZM150.151 29.7873C149.84 29.5558 148.97 29.651 149.606 28.7734C149.813 29.1595 149.982 29.4734 150.151 29.7873ZM129.273 24.2397C129.669 23.211 130.108 22.254 130.286 21.159C130.396 20.4844 130.177 19.714 131.12 19.6082C129.919 19.084 129.906 17.0152 129.835 15.9428C129.738 14.4658 129.271 12.4884 129.92 11.1138C130.586 9.7017 131.485 9.72505 131.757 11.4068C131.863 12.0652 131.457 12.2782 131.38 12.7367C131.229 13.6439 131.53 13.445 132.115 12.7539C132.356 13.4563 132.449 14.5119 133.432 14.4672C133.367 14.2773 132.99 13.8582 133.116 13.6222C133.309 13.2599 134.254 13.8136 134.373 13.8974C135.236 14.5005 135.423 15.0511 134.808 15.812C135.659 15.9037 134.945 16.649 135.494 16.8434C136.333 17.1399 135.77 15.7354 135.679 15.4884C136.19 15.6876 136.361 15.915 136.684 16.3183C136.874 16.5965 137.047 16.8853 137.203 17.1842C137.376 17.7296 137.734 17.8663 138.276 17.5943C139.362 17.935 140.861 17.8818 141.835 18.4774C142.279 18.7494 142.44 19.3447 142.812 19.5707C143.229 19.8252 143.789 19.7098 144.238 19.8696C144.074 20.2426 144.207 20.4445 144.637 20.4761C144.971 20.5067 145.294 20.5819 145.606 20.7015C145.84 20.5253 146.094 20.3862 146.369 20.2848C146.553 20.6101 146.814 20.6905 147.152 20.5266C148.153 20.7142 148.635 21.093 149.271 21.6595C149.842 22.1678 149.377 22.209 150.003 22.164C150.255 22.1458 150.696 21.7192 151.271 21.8023C151.602 21.8669 151.922 21.9689 152.229 22.1084C152.561 22.3928 152.914 22.4285 153.288 22.2159C153.894 22.5123 153.954 23.0375 154.693 23.1093C155.511 23.189 155.248 22.1695 155.81 23.6074C156.566 22.083 156.843 24.5114 157.624 24.7075C158.432 24.9109 158.52 24.2552 159.212 24.9717C159.42 25.1864 159.408 25.5412 159.641 25.7689C160.023 26.1416 160.539 26.0671 160.871 26.5754C160.686 26.2917 160.914 27.5808 160.911 27.5382C160.962 28.107 160.457 28.7442 161.493 28.6958C161.481 28.7555 160.983 29.4806 160.886 29.3985C160.863 29.3157 160.842 29.2319 160.827 29.1471C160.715 29.1948 160.666 29.8856 160.687 30.0075C160.774 30.0213 160.811 29.956 160.794 29.8117C160.624 30.3445 160.881 30.6828 160.554 31.1884C160.345 31.5116 159.772 31.7545 159.467 31.9541C158.733 32.4356 158.014 32.9186 157.298 33.431C155.628 34.6264 153.757 36.0676 151.654 36.317C152.71 35.2797 158.789 31.354 155.74 30.227C155.175 30.0182 154.145 29.8203 153.553 29.7764C152.818 29.7217 152.057 30.1429 151.246 29.8801C150.267 29.5634 150.636 28.6432 150.038 28.3131C148.768 27.6127 149.068 29.2598 148.668 29.6912C148.249 29.2505 148.338 29.0361 147.676 28.9963C147.003 28.9558 146.842 29.5778 146.057 29.1904C144.975 28.6562 145.548 27.5925 144.013 27.5674C144.038 27.3338 144.261 26.6812 143.968 26.4992C143.573 27.0113 143.879 27.5839 143.512 28.0768C143.329 28.3241 142.931 28.5213 142.64 28.6013C141.96 28.7881 141.863 29.1461 141.974 28.1214C141.469 29.03 139.923 28.6562 139.003 28.5649C137.508 28.4162 135.918 28.1331 134.484 27.6536C133.159 27.2098 132.45 26.4476 131.357 25.7541C130.943 25.4917 130.746 25.592 130.153 25.4292C129.568 25.2685 128.998 24.9569 129.273 24.2397ZM132.429 8.15326C132.655 8.01725 132.817 10.0469 132.543 10.4261C132.042 9.63369 131.154 8.47133 132.429 8.15326ZM133.15 7.34367C133.876 6.68658 133.372 8.38374 133.238 8.66849C132.969 8.49606 132.701 8.32363 132.432 8.15121C132.775 7.94065 132.86 7.60575 133.15 7.34367ZM160.542 4.6085C167.249 6.0161 173.896 8.6472 179.275 12.9772C184.176 16.9211 187.634 22.5168 189.573 28.469C191.586 34.6473 190.91 41.5019 186.121 46.2303C183.599 48.7209 180.268 50.2237 177.093 51.69C175.572 52.3925 174.005 52.9778 172.478 53.664C171.381 54.1569 170.042 54.9456 168.791 54.8089C169.429 54.137 170.355 54.1233 171.128 53.7125C172.062 53.2158 172.825 52.2626 173.629 51.5818C174.428 50.9059 176.201 48.7773 177.429 49.2925C177.258 48.1587 178.55 47.6321 179.132 46.8843C179.748 46.0933 179.792 45.1683 180.927 44.9093C179.708 43.9558 180.082 42.1573 180.346 40.8593C180.686 39.1992 180.843 37.6751 180.976 35.9859C181.217 32.9402 181.411 29.0605 179.729 26.3831C179.182 25.5137 178.487 24.7148 178 23.8117C177.413 22.7236 177.543 21.7656 177.543 20.5727C176.469 21.294 176.243 19.8232 175.789 19.1063C175.449 18.5684 175.002 18.2679 174.892 17.5912C174.812 17.0987 175.346 17.0155 175.054 16.4993C174.694 16.7706 174.551 17.1911 174.369 17.5813C174.037 17.4487 174.428 16.987 174.238 16.8369C174.233 16.8328 173.593 16.5549 173.625 16.5951C173.213 16.0733 173.081 15.2074 172.879 14.5864C172.125 14.9684 172.266 14.9234 171.425 14.2852C171.277 14.1728 170.536 13.6569 170.467 13.4883C170.141 12.6996 170.712 13.1668 170.552 12.6773C170.094 11.2714 167.523 11.5373 167.32 9.43069C166.066 10.2265 165.588 9.09888 164.847 8.29684C164.088 7.47523 162.814 7.15922 162.882 5.85604C162.487 5.99103 162.093 6.12567 161.699 6.25997C161.904 5.05743 160.117 5.13403 159.47 4.524C159.829 4.52846 160.186 4.55663 160.542 4.6085ZM161.563 79.0895C162.185 78.5334 161.996 79.2733 162.396 79.1888C162.738 79.1163 162.806 78.8577 163.134 78.7783C164.486 78.4517 166.506 78.8621 167.927 78.7917C169.573 78.7103 172.395 79.0521 173.179 80.978C173.652 82.1379 172.931 81.7433 172.136 81.6571C171.52 81.5904 170.973 81.7151 170.363 81.7089C170.061 81.7553 169.761 81.7508 169.462 81.6949C169.316 81.5987 169.23 81.4633 169.203 81.2888C168.355 81.1604 167.454 81.6622 166.515 81.6873C165.261 81.7206 164.147 81.4802 163.195 80.6338C162.816 81.1982 162.558 81.4781 161.877 81.5413C161.859 81.543 161.194 81.2751 161.091 81.2483C160.955 81.2129 160.61 81.4991 160.347 81.4173C160.813 80.6747 160.881 79.6992 161.563 79.0895ZM247.184 85.7919C247.405 85.0222 247.59 84.2425 247.792 83.4676C250.886 86.9904 253.594 91.7061 254.813 96.2239C255.604 99.1597 256.836 104.479 253.062 105.993C249.988 107.227 248.275 102.805 247.497 100.628C245.78 95.8207 245.78 90.6832 247.184 85.7919ZM108.737 30.5932C108.777 30.5853 106.734 31.7734 107.407 30.8113C107.677 30.4245 108.703 30.1525 109.157 30.1525L108.737 30.5932ZM106.772 31.0967C106.535 31.2956 106.297 31.4921 106.056 31.6858C105.825 31.3203 105.593 30.9549 105.362 30.5894C105.818 30.397 107.754 30.2528 106.772 31.0967ZM105.332 68.0379C104.904 67.7483 104.565 67.9022 104.437 68.3882C104.437 67.9046 104.689 66.7811 105.076 66.6502C105.326 66.5654 104.245 65.2859 104.549 64.951C105.322 65.3937 104.859 65.8179 105.085 66.3895C105.187 66.6474 105.494 66.8913 105.562 67.0895C105.676 67.4258 106.137 68.5823 105.332 68.0379ZM103.238 65.1588C102.8 65.2708 103.566 65.9934 103.566 66.3129C103.565 66.5544 103.275 66.7398 103.155 67.0703C102.896 67.7864 103.342 68.2701 102.608 68.8166C102.608 67.2475 101.555 63.09 103.578 62.3254C102.591 61.5481 103.402 60.6509 104.175 61.581C104.919 62.4755 104.445 64.8496 103.238 65.1588ZM102.184 58.9671C101.786 57.5568 100.589 57.0635 99.2204 57.147C99.2725 56.425 99.8197 55.3839 100.215 56.6853C100.378 56.3006 100.49 55.7988 100.861 55.5439C101.485 57.5004 104.596 58.5814 102.659 60.7014C102.5 60.1233 102.346 59.5442 102.184 58.9671ZM98.5682 57.2521C91.3637 57.7745 81.2492 59.2694 75.4839 53.7472C71.7248 50.1464 71.9255 44.539 74.9634 40.5384C76.697 38.2556 79.0635 36.6481 81.4403 35.1169C82.3573 34.5257 83.1344 34.1355 84.1413 33.7958C84.3043 33.7783 84.4576 33.8147 84.601 33.905C84.6576 33.6619 84.7945 33.4819 85.0127 33.3644C85.4014 33.1562 85.9555 33.0821 86.1795 32.65C85.9404 33.4613 85.8176 34.2966 85.7297 35.1361C85.5356 34.9101 85.3417 34.6841 85.1479 34.4581C84.986 35.9869 83.3931 35.0616 82.4421 35.2525C83.0685 36.1195 83.5166 36.4345 83.5704 37.5803C83.1039 36.7189 82.1282 36.1525 81.2211 35.8749C81.7137 37.332 82.0619 38.1969 81.5659 39.7948C80.9669 39.4527 80.9264 38.6311 80.1997 38.4342C80.008 39.3871 79.974 40.4443 79.7284 41.369C77.8675 40.5202 78.049 42.8061 78.7962 43.9372C79.1935 44.539 79.3887 45.2356 79.7431 45.8133C80.6128 47.2302 79.952 45.1113 80.9188 45.2119C80.7017 46.7064 80.6262 46.8551 81.7199 47.9495C82.7872 49.0167 83.3409 50.4975 84.4827 51.5001C84.813 51.0776 84.2933 50.6355 84.2477 50.2312C85.3102 50.4095 85.8076 51.4747 86.8289 50.5311C87.2742 51.3991 87.7563 52.355 88.8229 52.5333C88.1179 51.193 90.177 52.1019 90.705 52.2922C91.1057 52.4364 91.823 52.5511 91.9778 52.6068C92.8478 52.9211 92.2512 52.3571 92.7792 53.3872C93.5545 53.1533 93.8472 52.5099 94.7745 53.0533C95.5286 53.4954 95.5303 54.2524 95.7025 55.028C95.8823 54.5207 96.0638 54.0137 96.2624 53.5133C96.4648 53.5984 97.3139 54.5327 97.2213 54.5372C99.2084 54.4396 99.138 55.6734 98.5682 57.2521ZM88.4527 31.9595C88.8517 31.6796 89.3389 32.0523 89.7869 31.952C90.4072 31.8136 90.7595 31.2822 91.4525 31.2252C91.2597 31.8414 90.8978 31.7837 90.5918 32.2677C90.4875 32.4325 90.5417 32.8282 90.449 32.923C89.6723 33.7185 89.404 33.0694 88.6112 32.4672C88.6802 33.1933 88.8198 33.4228 88.1357 33.6175C87.5165 33.7941 86.4944 33.1439 86.1822 32.6451C86.4454 32.1182 87.9751 32.2948 88.4527 31.9595ZM93.396 30.8247C94.0688 30.8889 93.2585 32.8736 92.2944 30.9483C92.6574 30.8693 93.0248 30.8281 93.396 30.8247ZM96.8552 30.441C97.916 30.2246 101.455 29.2161 101.849 30.8676C101.919 30.8264 102.182 29.8942 102.305 30.0079C102.795 30.4637 102.85 31.0679 102.812 31.7009C102.22 30.4671 102.431 31.5508 102.029 31.4663C101.924 31.444 101.764 31.6398 101.499 31.559C101.151 31.4529 100.901 30.7127 100.682 30.462C100.316 30.984 99.863 31.6562 99.1305 31.6109C98.6121 31.579 97.7767 30.2442 98.4481 31.7054C98.0539 31.5752 97.5976 31.2805 97.1585 31.3396C96.6669 31.4058 96.4113 31.8912 95.9506 31.9695C94.9289 32.1426 94.7748 31.1596 94.1117 30.6258C95.0263 30.5726 95.9519 30.6251 96.8552 30.441ZM103.274 30.4252C103.349 30.0865 104.277 29.9498 104.513 30.0573C105.09 30.3194 104.877 30.6653 104.771 31.241C104.343 31.0383 103.915 30.836 103.486 30.6334C104.126 31.6624 102.968 31.8118 103.274 30.4252ZM282.979 90.7041C282.904 88.2379 282.832 85.7291 282.207 83.3281C281.769 81.6478 280.694 78.6347 278.661 78.3431C275.595 77.9031 273.897 83.9629 273.038 86.043C272.866 83.594 273.017 80.9873 272.092 78.6629C271.351 76.8002 269.48 75.036 267.868 77.1279C266.434 78.9896 266.159 81.7378 265.782 83.9777C265.292 86.8801 264.999 89.8049 264.641 92.7248C263.241 90.0185 262.996 86.9206 261.889 84.1078C260.845 81.4537 259.201 78.9188 257.618 76.558C256.325 74.6297 254.752 72.8168 252.727 71.6379C250.964 70.612 247.881 69.5022 246.201 71.2062C244.798 72.6279 245.018 74.5304 245.091 76.3245C245.124 77.1234 245.249 77.6713 244.546 78.0738C244.201 78.2717 243.662 78.1693 243.282 78.2751C242.671 78.4458 242.202 78.735 241.685 79.1194C238.059 81.8144 236.387 86.6709 235.87 91.0009C235.215 96.487 237.354 101.19 239.194 106.21C239.488 107.01 240.419 108.707 240.291 109.6C240.15 110.579 238.921 110.604 238.092 110.624C235.589 110.686 232.973 110.5 230.483 110.266C224.553 109.712 218.628 106.857 213.319 104.308C212.35 103.843 210.98 103.577 210.189 102.845C209.446 102.156 209.25 101.053 208.608 100.263C207.034 98.3257 206.031 96.6722 203.712 95.5016C201.351 94.3097 198.941 93.2081 196.638 91.9025C193.789 90.2875 191.157 88.2417 188.426 86.4332C183.353 83.0733 178.314 79.3897 172.935 76.5326C170.435 75.2047 167.642 74.9897 165.047 73.9025C162.52 72.8439 159.418 72.8425 156.781 73.511C155.496 73.8369 154.622 74.6091 153.441 75.113C152.056 75.7038 150.927 75.0518 149.708 74.3467C147.847 73.2695 146.001 71.5143 148.652 70.3523C149.552 69.958 150.678 69.8085 151.464 69.1886C152.301 68.528 152.973 67.3093 153.654 66.4819C155.168 64.6425 156.072 62.5249 158.288 61.3811C160.737 60.1161 163.642 59.7719 166.254 58.9451C169.084 58.0497 171.855 56.9849 174.633 55.9393C179.637 54.0556 184.84 52.0218 188.436 47.8753C191.538 44.2979 192.89 39.6804 192.764 34.9905C192.508 25.4028 187.373 15.6725 180.004 9.678C170.968 2.32741 159.473 -0.123701 148.059 0.00476291C142.702 0.0652163 136.31 0.76627 131.84 4.02079C127.98 6.83188 127.338 11.7485 127.912 16.1867C128.145 17.9879 128.941 20.3649 127.671 21.9521C126.96 22.84 125.684 23.0598 124.726 23.6135C123.523 24.3091 122.462 24.9758 121.099 25.3437C115.309 26.9072 109.211 26.3628 103.291 26.2762C93.4297 26.132 83.3217 28.8019 75.9652 35.7506C70.0245 41.3614 68.243 51.9418 75.4883 57.4118C81.3422 61.8307 90.5242 61.3447 97.4265 60.5739C99.5669 60.3345 101.039 59.9869 101.043 62.6057C101.049 65.4662 100.575 68.4559 101.305 71.2642C102.455 75.687 106.704 75.7924 110.462 74.8399C112.444 74.3374 114.361 73.5817 116.243 72.7903C119.005 71.6297 121.536 69.9229 124.263 68.7643C126.112 67.9791 127.496 70.5185 129.136 68.7582C129.439 68.4329 129.495 67.9479 129.952 67.7813C130.668 67.5206 131.87 68.4349 132.498 68.7242C133.438 69.1573 134.387 69.4757 134.762 70.5185C135.114 71.494 134.96 73.0452 134.623 74.0076C133.891 76.0995 131.921 75.6859 130.122 75.5461C126.985 75.3019 123.868 74.7843 120.732 74.5668C117.918 74.3717 115.283 75.2126 112.855 76.6003C107.758 79.5147 103.587 84.1504 99.1669 87.9628C96.8919 89.9248 94.6928 92.0441 92.2189 93.7526C91.1434 94.4955 89.9783 95.1784 89.0435 96.1017C88.1158 97.0174 88.0139 97.85 87.6966 99.0687C87.1315 101.238 84.3255 102.299 82.5714 103.444C80.091 105.063 77.4613 106.205 74.6807 107.198C68.7919 109.302 62.8567 110.771 56.7003 111.856C53.686 112.388 50.6969 112.737 47.6531 113.024C45.0296 113.272 42.2398 114.08 39.6194 113.434C40.3741 112.21 41.7114 111.475 42.753 110.529C44.0958 109.309 45.2379 107.864 46.2541 106.366C48.2322 103.45 49.6196 100.321 49.9383 96.7835C50.2255 93.6001 49.8961 89.7918 47.9753 87.1027C47.3118 86.1736 45.9992 85.9207 45.4053 85.084C44.8149 84.2521 45.0399 82.8201 44.7168 81.8501C43.8937 79.3832 41.4514 76.3262 39.302 74.8935C36.9702 73.3385 33.559 72.7673 30.8652 73.5776C25.8749 75.0786 22.8095 80.4116 20.526 84.722C19.2786 82.0971 21.3676 78.203 18.9307 76.0535C16.8754 74.2402 15.2441 77.7527 14.5565 79.2554C11.3296 86.3096 10.5968 93.7914 9.24475 101.339C8.69377 100.796 8.97612 99.4022 9.02792 98.7544C9.12433 97.5484 9.11541 96.3654 9.11781 95.1543C9.12433 92.0949 9.69314 89.0214 9.43241 85.9647C9.2818 84.1978 8.71847 80.472 6.15126 81.0591C3.97412 81.5571 2.61041 84.6186 1.92632 86.4902C0.939641 89.19 0.711841 91.8627 0.773251 94.7147C0.841179 97.8658 0.240802 100.965 0.0953392 104.112C-0.187353 110.224 0.0919085 116.284 1.8457 122.183C4.71756 131.843 11.3207 139.869 20.1335 144.715C24.989 147.386 30.3756 149.076 35.9138 149.439C38.9151 149.636 41.8123 149.279 44.7878 148.969C47.7241 148.662 50.6759 148.521 53.6071 148.161C60.1351 147.361 66.496 145.294 72.4295 142.513C75.5528 141.049 78.4899 139.252 81.5621 137.691C82.7947 137.065 83.6277 136.282 84.6796 135.411C85.7225 134.548 86.0114 134.481 87.1974 134.481C86.8495 133.55 87.865 133.263 88.3168 132.674C88.2915 132.96 88.2661 133.245 88.2407 133.531C88.5851 132.783 88.9059 132.791 89.2027 133.552C89.496 132.699 89.7132 131.822 90.0672 130.991C91.4213 131.676 91.3074 133.306 93.1181 132.116C94.6095 131.137 95.9807 129.982 97.5009 129.023C100.964 126.837 103.95 123.993 107.423 121.832C107.423 123.937 107.571 126.059 107.29 128.153C107.022 130.144 106.279 132.005 105.688 133.911C104.597 137.428 104.522 141.186 103.314 144.667C102.814 146.109 101.512 147.314 101.139 148.718C100.758 150.149 101.637 151.297 100.164 152.237C99.125 152.899 97.8265 153.179 96.6761 153.58C94.9213 154.192 93.2554 155.055 91.5472 155.787C83.5351 159.22 75.7199 162.717 68.2968 167.333C61.2522 171.713 54.0998 176.237 47.6284 181.44C42.012 185.955 36.3345 191.793 34.9673 199.158C33.6407 206.302 37.1753 213.97 44.2728 216.323C47.9633 217.547 52.1354 217.395 55.9785 217.448C60.1139 217.505 64.4959 216.509 68.5617 215.787C72.8556 215.026 77.0757 213.834 81.382 213.154C85.5136 212.501 89.3032 211.043 93.3672 210.144C97.6958 209.187 102.135 208.667 106.488 207.806C108.447 207.418 110.367 206.846 112.332 206.488C114.483 206.095 116.658 205.947 118.788 205.427C122.92 204.417 126.875 202.789 131.025 201.85C132.891 201.427 134.728 200.862 136.594 200.467C138.313 200.104 139.652 199.138 141.374 199.931C142.765 200.572 143.875 201.671 145.191 202.436C146.899 203.429 148.7 204.318 150.48 205.172C154.058 206.889 157.768 208.075 161.509 209.364C165.438 210.718 169.296 212.262 173.367 213.156C177.54 214.073 181.797 214.328 185.999 215.053C194.605 216.538 203.137 217.204 211.873 217.258C216.288 217.286 220.703 216.762 225.108 216.824C229.008 216.879 232.398 217.758 235.964 215.685C241.661 212.372 248.27 207.382 248.13 200.135C248.003 193.57 244.065 187.299 240.372 182.121C235.887 175.834 229.492 171.406 223.224 167.069C216.544 162.447 209.041 159.253 202.021 155.219C198.43 153.156 195.119 150.936 191.22 149.469C189.359 148.77 187.543 147.958 185.704 147.205C184.224 146.598 182.087 146.264 180.821 145.257C180.03 144.63 179.954 143.68 179.746 142.746C179.283 140.681 178.557 138.723 177.853 136.731C176.494 132.885 175.59 128.969 175.006 124.936C174.449 121.091 173.213 117.092 173.853 113.185C178.064 117.258 182.391 121.173 186.699 125.138C188.314 126.624 189.899 128.141 191.522 129.618C192.74 130.727 194.264 132.374 195.962 132.703C198.131 133.124 197.339 130.724 198.828 130.352C199.739 130.125 202.484 132.438 203.204 132.895C207.765 135.791 212.816 137.626 217.833 139.597C223.094 141.664 228.505 143.5 234.166 144.02C239.395 144.501 244.742 143.884 249.788 142.459C259.838 139.622 267.233 132.891 272.66 124.165C278.844 114.222 283.343 102.574 282.979 90.7041Z" fill="#F7F3F0"/>
<path fill-rule="evenodd" clip-rule="evenodd" d="M129.39 69.0278C129.388 69.0308 129.373 69.0642 129.373 69.0642C129.392 69.0509 129.398 69.0389 129.39 69.0278Z" fill="#F7F3F0"/>
<path fill-rule="evenodd" clip-rule="evenodd" d="M129.875 69.1564C129.837 68.8396 129.756 68.5295 129.631 68.2259C129.298 68.7533 129.001 68.9792 129.438 69.5378C129.583 69.4106 129.729 69.2835 129.875 69.1564Z" fill="#F7F3F0"/>
<path fill-rule="evenodd" clip-rule="evenodd" d="M153.048 144.537C153.42 144.141 152.769 143.991 152.522 143.986C152.546 144.411 152.336 145.429 152.917 145.626C152.778 145.242 152.821 144.878 153.048 144.537Z" fill="#F7F3F0"/>
<path fill-rule="evenodd" clip-rule="evenodd" d="M143.232 61.6806C142.592 62.9156 144.005 63.2988 144.823 62.7022C145.438 62.2536 145.802 61.1101 145.903 60.3764C146.23 58.0023 144.569 55.7427 143.741 53.6362C143.527 53.0917 143.233 51.2245 142.544 51.173C141.752 51.1141 141.694 52.834 141.683 53.2778C141.653 54.616 142.007 55.9788 142.423 57.2419C142.87 58.6037 143.979 60.2383 143.232 61.6806Z" fill="#F7F3F0"/>
<path fill-rule="evenodd" clip-rule="evenodd" d="M146.273 56.7274C148.732 58.9162 150.698 55.2706 150.526 53.114C150.484 52.5797 150.123 50.6098 149.11 51.3267C148.6 51.6869 149.034 52.8573 148.792 53.3711C147.616 55.8625 146.484 51.9982 145.692 51.6946C144.729 51.3251 144.632 52.5908 144.633 53.2673C144.636 54.6102 145.275 55.8379 146.273 56.7274Z" fill="#F7F3F0"/>
<path fill-rule="evenodd" clip-rule="evenodd" d="M137.35 57.0673C137.929 56.1555 138.641 54.9327 138.72 53.8403C138.842 52.1424 137.852 52.2841 137.038 53.4688C136.463 54.3056 136.031 55.725 134.762 55.3722C133.194 54.9372 133.673 52.8292 132.795 51.8275C130.579 54.8042 134.773 61.1245 137.35 57.0673Z" fill="#F7F3F0"/>
<path fill-rule="evenodd" clip-rule="evenodd" d="M140.671 66.1769C141.588 66.375 143.978 66.3019 143.15 64.8984C142.106 63.1304 138.633 65.7359 140.671 66.1769Z" fill="#F7F3F0"/>
<path fill-rule="evenodd" clip-rule="evenodd" d="M172.783 13.4554C172.95 12.9557 172.72 12.865 172.32 12.4715C171.941 12.8212 172.426 13.1891 172.783 13.4554Z" fill="#F7F3F0"/>
<path fill-rule="evenodd" clip-rule="evenodd" d="M189.88 103.958C190.485 104.054 190.679 103.734 190.463 102.998C189.509 102.936 189.315 103.256 189.88 103.958Z" fill="#F7F3F0"/>
<path fill-rule="evenodd" clip-rule="evenodd" d="M156.859 26.7545C157.526 27.0595 157.27 27.6851 157.259 28.214C157.602 27.8406 158.296 27.158 158.014 26.6216C157.578 25.7947 156.441 26.5637 156.859 26.7545Z" fill="#F7F3F0"/>
<path fill-rule="evenodd" clip-rule="evenodd" d="M134.138 16.3463C134.037 16.1479 133.935 15.9496 133.833 15.7512C133.419 16.0836 132.779 16.9626 133.438 17.391C133.708 17.0635 133.941 16.7153 134.138 16.3463Z" fill="#F7F3F0"/>
<path fill-rule="evenodd" clip-rule="evenodd" d="M142.141 22.1807C142.971 22.8315 142.573 20.8339 142.548 20.6708C142.425 20.9051 141.722 21.8519 142.141 22.1807Z" fill="#F7F3F0"/>
<path fill-rule="evenodd" clip-rule="evenodd" d="M141.681 21.1662C141.618 21.0012 141.554 20.8362 141.491 20.6708C141.155 20.9822 140.742 21.6183 141.298 21.9826C141.45 21.7274 141.578 21.4554 141.681 21.1662Z" fill="#F7F3F0"/>
<path fill-rule="evenodd" clip-rule="evenodd" d="M146.952 28.0259C147.02 28.0884 147.088 28.151 147.155 28.2139C147.429 27.6617 147.118 27.2469 146.601 27.23C146.638 27.54 146.755 27.8053 146.952 28.0259Z" fill="#F7F3F0"/>
<path fill-rule="evenodd" clip-rule="evenodd" d="M124.714 90.145C125.044 89.9209 125.342 89.6653 125.611 89.3784C124.637 88.7827 125.221 90.0736 124.048 89.281C123.795 89.6303 124.208 90.412 124.714 90.145Z" fill="#F7F3F0"/>
<path fill-rule="evenodd" clip-rule="evenodd" d="M165.657 144.314C166.027 143.745 166.094 143.762 165.588 143.33C165.166 144.033 165.21 143.852 165.657 144.314Z" fill="#F7F3F0"/>
<path fill-rule="evenodd" clip-rule="evenodd" d="M88.2231 53.8204C88.4248 54.0308 88.6265 54.2412 88.8282 54.4513C88.9224 54.1761 89.4359 53.3983 89.0871 53.1394C88.7993 53.3664 88.511 53.5934 88.2231 53.8204Z" fill="#F7F3F0"/>
<path fill-rule="evenodd" clip-rule="evenodd" d="M95.3967 55.9015C95.0747 55.8478 94.3046 55.6129 94.1263 55.9122C94.5975 56.2983 95.6606 55.9458 95.3967 55.9015Z" fill="#F7F3F0"/>
</svg>
