<svg width="19" height="17" viewBox="0 0 19 17" fill="none" xmlns="http://www.w3.org/2000/svg">
<path d="M13.5806 15.3536C13.5806 14.9195 13.5806 0.881642 13.5806 0.531879C13.5806 0.23814 13.3425 0 13.0488 0H0.531879C0.23814 0 0 0.23814 0 0.531879V14.2898C0 15.7562 1.193 16.9492 2.65939 16.9492H14.114C13.7793 16.5044 13.5806 15.9517 13.5806 15.3536ZM2.83669 10.2121H4.5387C4.83244 10.2121 5.07058 10.4502 5.07058 10.7439C5.07058 11.0377 4.83244 11.2758 4.5387 11.2758H2.83669C2.54295 11.2758 2.30481 11.0377 2.30481 10.7439C2.30481 10.4502 2.54295 10.2121 2.83669 10.2121ZM2.30481 8.4746C2.30481 8.18086 2.54295 7.94272 2.83669 7.94272H4.5387C4.83244 7.94272 5.07058 8.18086 5.07058 8.4746C5.07058 8.76834 4.83244 9.00648 4.5387 9.00648H2.83669C2.54295 9.00648 2.30481 8.76834 2.30481 8.4746ZM10.7794 14.3962H2.83669C2.54295 14.3962 2.30481 14.158 2.30481 13.8643C2.30481 13.5706 2.54295 13.3324 2.83669 13.3324H10.7794C11.0731 13.3324 11.3113 13.5706 11.3113 13.8643C11.3113 14.158 11.0731 14.3962 10.7794 14.3962ZM11.3113 11.595C11.3113 11.8887 11.0731 12.1268 10.7794 12.1268H6.80805C6.51431 12.1268 6.27617 11.8887 6.27617 11.595V7.62359C6.27617 7.32985 6.51431 7.09171 6.80805 7.09171H10.7794C11.0731 7.09171 11.3113 7.32985 11.3113 7.62359V11.595ZM10.7794 5.88612H2.83669C2.54295 5.88612 2.30481 5.64798 2.30481 5.35424C2.30481 5.06051 2.54295 4.82237 2.83669 4.82237H10.7794C11.0731 4.82237 11.3113 5.06051 11.3113 5.35424C11.3113 5.64798 11.0731 5.88612 10.7794 5.88612ZM10.7794 3.61677H2.83669C2.54295 3.61677 2.30481 3.37863 2.30481 3.0849C2.30481 2.79116 2.54295 2.55302 2.83669 2.55302H10.7794C11.0731 2.55302 11.3113 2.79116 11.3113 3.0849C11.3113 3.37863 11.0731 3.61677 10.7794 3.61677Z" fill="white"/>
<path d="M7.33997 8.15546H10.2476V11.0631H7.33997V8.15546Z" fill="white"/>
<path d="M17.6229 3.68768H14.6444C14.6444 15.7398 14.6426 15.3539 14.6475 15.3539C14.6934 16.0964 15.2009 16.7136 15.8865 16.9228C16.9831 17.2574 18.1074 16.4642 18.153 15.3147C18.1557 15.3147 18.1547 15.5804 18.1547 4.21956C18.1547 3.92582 17.9166 3.68768 17.6229 3.68768Z" fill="white"/>
</svg>
