<svg width="44" height="49" viewBox="0 0 44 49" fill="none" xmlns="http://www.w3.org/2000/svg">
<path d="M20.6026 1.92563V1.19703C20.6026 0.535872 21.0961 0 21.705 0C22.3139 0 22.8074 0.535872 22.8074 1.19703V1.92563C22.8074 2.58679 22.3139 3.12266 21.705 3.12266C21.0961 3.12266 20.6026 2.58665 20.6026 1.92563ZM9.94188 5.66835C10.1461 6.0526 10.5166 6.2674 10.8978 6.2674C11.0847 6.2674 11.2742 6.21566 11.4476 6.10699C11.975 5.77661 12.1559 5.04456 11.8517 4.47198L11.5164 3.84101C11.2121 3.2683 10.5378 3.07198 10.0107 3.40223C9.48329 3.73261 9.30249 4.46467 9.60663 5.03725L9.94188 5.66835ZM31.962 6.10699C32.1355 6.21579 32.325 6.26753 32.512 6.26753C32.893 6.26753 33.2636 6.05273 33.4678 5.66875L33.8033 5.03778C34.1077 4.4652 33.927 3.73315 33.3997 3.40263C32.8725 3.07225 32.1984 3.26843 31.8939 3.84088L31.5584 4.47185C31.254 5.0443 31.4346 5.77635 31.962 6.10699ZM40.4263 14.859C40.6133 14.859 40.8029 14.8073 40.9766 14.6984L41.5577 14.3341C42.0849 14.0034 42.2654 13.2712 41.9609 12.6988C41.6565 12.1263 40.9824 11.9302 40.4551 12.2609L39.874 12.6252C39.3468 12.9559 39.1663 13.6879 39.4706 14.2605C39.6748 14.6444 40.0452 14.859 40.4263 14.859ZM43.2919 36.0884C41.8604 39.169 37.8602 41.2388 33.3378 41.2388C30.2377 41.2388 27.3337 40.2679 25.3594 38.6055C24.2285 39.4471 23.0345 39.989 21.8515 40.1546C21.7976 40.1622 21.7436 40.165 21.6914 40.1644C21.6473 40.164 21.603 40.1608 21.5587 40.1546C20.3756 39.9889 19.1815 39.447 18.0506 38.6055C16.0764 40.268 13.1726 41.2388 10.0722 41.2388C5.54986 41.2388 1.54969 39.169 0.118185 36.0884C-0.0393336 35.7494 -0.0394561 35.3492 0.118185 35.01C1.17439 32.7364 3.58971 31.0125 6.64612 30.2652C5.06016 27.8193 4.48104 24.9291 5.19931 22.4567C5.28725 22.1541 5.48225 21.9018 5.74131 21.7553C7.55265 20.7306 9.84989 20.6564 12.0861 21.5074C12.4181 20.3132 12.9405 19.2741 13.6483 18.4641C13.8905 18.187 14.2402 18.0522 14.5889 18.101C15.1672 18.182 15.7479 18.3529 16.3228 18.6047C17.4891 15.928 19.2084 13.9319 21.245 12.917C21.5367 12.7715 21.8726 12.7715 22.1645 12.917C24.2003 13.9313 25.9189 15.9261 27.0856 18.6011C27.6606 18.3514 28.2419 18.1823 28.8211 18.101C29.1702 18.0522 29.5196 18.187 29.7617 18.4641C30.4697 19.2741 30.9919 20.3131 31.3239 21.5071C33.5603 20.6563 35.8573 20.7307 37.6685 21.7551C37.9276 21.9017 38.1226 22.154 38.2105 22.4565C38.929 24.929 38.3499 27.819 36.7638 30.265C39.8203 31.0122 42.2357 32.7362 43.2919 35.0097C43.4494 35.3492 43.4494 35.7494 43.2919 36.0884ZM29.9441 32.6928C31.1412 32.3699 32.3304 31.7047 33.3779 30.7504C35.5175 28.8011 36.6381 25.963 36.2231 23.6692C34.9282 23.1231 33.3131 23.2078 31.7215 23.9013C31.8744 26.1363 31.5032 28.6644 30.5863 31.1526C30.3914 31.6816 30.1765 32.1959 29.9441 32.6928ZM18.2559 19.771C19.5259 20.7527 20.7104 22.1115 21.7027 23.7369C22.7 22.094 23.8833 20.7374 25.1502 19.7614C24.3011 17.7694 23.0858 16.2114 21.7049 15.3505C20.3218 16.2129 19.1049 17.7745 18.2559 19.771ZM10.0318 30.7503C11.0792 31.7047 12.2688 32.3702 13.4661 32.693C13.2336 32.1958 13.0189 31.6817 12.8237 31.1524C11.9069 28.6644 11.5358 26.1361 11.6885 23.9013C10.0969 23.2075 8.48183 23.1228 7.18666 23.6689C6.77167 25.9628 7.8923 28.801 10.0318 30.7503ZM16.3091 37.0181C15.8343 36.4995 15.3809 35.9269 14.9559 35.3083C12.7713 35.2678 10.4923 34.2955 8.61448 32.5843C8.53548 32.5123 8.45782 32.4397 8.38115 32.3659C5.69611 32.7271 3.44579 33.9288 2.38701 35.5489C3.67422 37.5149 6.71753 38.8449 10.072 38.8449C12.4535 38.8449 14.7312 38.163 16.3091 37.0181ZM21.2766 27.9927C20.178 25.0113 18.3412 22.5526 16.4104 21.3117C16.3565 21.284 16.3056 21.252 16.2577 21.2163C15.8008 20.9385 15.3399 20.7298 14.8827 20.5989C14.4258 21.3085 14.1198 22.2163 13.9675 23.2504C13.9636 23.3134 13.955 23.3764 13.9417 23.439C13.6873 25.4361 13.9908 27.8757 14.8705 30.2632C15.7584 32.6726 17.1282 34.7405 18.6403 36.1004C18.6756 36.128 18.7096 36.1582 18.7423 36.191C19.5616 36.9076 20.4201 37.4155 21.2643 37.6572C22.6193 35.5537 22.6463 31.7101 21.2766 27.9927ZM28.5393 30.263C29.4188 27.8765 29.7223 25.4376 29.4685 23.4408C29.4546 23.3767 29.4458 23.3121 29.4419 23.2476C29.2897 22.2145 28.9837 21.3076 28.5269 20.5985C28.0767 20.727 27.622 20.9309 27.1705 21.2022C27.1109 21.2489 27.0459 21.2896 26.9765 21.3233C25.4769 22.2911 24.0297 23.9952 22.9402 26.1411C23.0752 26.4558 23.203 26.7767 23.3234 27.1035C24.5735 30.4959 24.8092 33.9627 24.0854 36.6595C24.2821 36.5145 24.4775 36.3569 24.6706 36.188C24.7012 36.1576 24.733 36.1294 24.766 36.1034C26.2794 34.7435 27.6508 32.6742 28.5393 30.263ZM41.0228 35.5489C39.964 33.9288 37.7136 32.7273 35.0284 32.3659C34.9519 32.4396 34.874 32.5125 34.7951 32.5843C32.9172 34.2953 30.6384 35.2675 28.4541 35.3082C28.029 35.9269 27.5756 36.4994 27.1008 37.0181C28.6788 38.1627 30.9567 38.8448 33.3378 38.8448C36.6922 38.8449 39.7356 37.5149 41.0228 35.5489ZM32.3916 44.4025C31.9326 43.9682 31.2362 44.0205 30.8363 44.5188C30.1412 45.3855 26.8485 46.6059 21.705 46.6059C16.5614 46.6059 13.2687 45.3855 12.5736 44.5188C12.1737 44.0205 11.4774 43.9682 11.0183 44.4025C10.5592 44.8367 10.5112 45.5928 10.9111 46.0913C12.6334 48.2383 17.8021 49 21.7051 49C25.6081 49 30.7768 48.2382 32.4991 46.0913C32.8987 45.5927 32.8507 44.8367 32.3916 44.4025ZM7.21324 19.0744C7.79885 19.2536 8.40809 18.8832 8.57321 18.2469C10.2211 11.8957 15.6211 7.45991 21.705 7.45991C27.7889 7.45991 33.1889 11.8957 34.8368 18.2469C34.9738 18.7748 35.4161 19.1197 35.8973 19.1197C35.9963 19.1197 36.097 19.105 36.1968 19.0744C36.7829 18.8952 37.124 18.234 36.9589 17.5977C35.0445 10.2191 28.7718 5.06584 21.705 5.06584C14.6381 5.06584 8.36547 10.2192 6.45112 17.5977C6.28601 18.234 6.62714 18.8952 7.21324 19.0744ZM21.705 44.9769C22.6521 44.9769 25.8301 44.8672 26.9613 43.4563C27.361 42.9576 27.3128 42.2015 26.8536 41.7674C26.3969 41.3355 25.7052 41.3851 25.3047 41.8766C25.0532 42.1246 23.7483 42.5828 21.705 42.5828C19.6612 42.5828 18.3562 42.1245 18.105 41.8763C17.7042 41.3851 17.0128 41.3355 16.556 41.7675C16.0968 42.2018 16.0488 42.9579 16.4487 43.4564C17.5802 44.8673 20.7581 44.9769 21.705 44.9769ZM1.85223 14.3338L2.43294 14.6982C2.60663 14.8072 2.79624 14.859 2.98352 14.859C3.36433 14.859 3.73473 14.6445 3.93904 14.2606C4.24366 13.6882 4.06324 12.956 3.53606 12.6254L2.95535 12.2609C2.42853 11.9304 1.75387 12.1259 1.44937 12.6985C1.14475 13.2708 1.32517 14.003 1.85223 14.3338Z" fill="white"/>
</svg>
