<svg width="214" height="173" viewBox="0 0 214 173" fill="none" xmlns="http://www.w3.org/2000/svg">
    <g opacity="0.5" filter="url(#filter0_d_1_466)">
        <path
            d="M83.1047 116.786V116.489C83.1047 116.219 83.3228 116 83.5918 116C83.8609 116 84.079 116.219 84.079 116.489V116.786C84.079 117.056 83.8609 117.275 83.5918 117.275C83.3228 117.275 83.1047 117.056 83.1047 116.786ZM78.3935 118.314C78.4837 118.47 78.6475 118.558 78.8159 118.558C78.8985 118.558 78.9823 118.537 79.0589 118.493C79.292 118.358 79.3719 118.059 79.2375 117.825L79.0893 117.568C78.9548 117.334 78.6568 117.254 78.4239 117.389C78.1908 117.524 78.1109 117.822 78.2453 118.056L78.3935 118.314ZM88.1246 118.493C88.2013 118.537 88.285 118.558 88.3677 118.558C88.536 118.558 88.6998 118.471 88.79 118.314L88.9383 118.056C89.0728 117.823 88.993 117.524 88.7599 117.389C88.527 117.254 88.229 117.334 88.0945 117.568L87.9462 117.825C87.8117 118.059 87.8915 118.358 88.1246 118.493ZM91.8651 122.065C91.9478 122.065 92.0316 122.044 92.1083 121.999L92.3651 121.851C92.5981 121.716 92.6779 121.417 92.5433 121.183C92.4088 120.95 92.1109 120.869 91.8778 121.004L91.621 121.153C91.3881 121.288 91.3083 121.587 91.4428 121.821C91.533 121.977 91.6967 122.065 91.8651 122.065ZM93.1315 130.73C92.4989 131.987 90.7311 132.832 88.7326 132.832C87.3626 132.832 86.0792 132.436 85.2068 131.757C84.707 132.101 84.1794 132.322 83.6566 132.39C83.6328 132.393 83.6089 132.394 83.5858 132.394C83.5664 132.394 83.5468 132.392 83.5272 132.39C83.0043 132.322 82.4767 132.101 81.9769 131.757C81.1044 132.436 79.8212 132.832 78.4511 132.832C76.4526 132.832 74.6848 131.987 74.0522 130.73C73.9826 130.592 73.9826 130.428 74.0522 130.29C74.519 129.362 75.5864 128.658 76.937 128.353C76.2362 127.355 75.9803 126.175 76.2977 125.166C76.3365 125.043 76.4227 124.94 76.5372 124.88C77.3377 124.462 78.3528 124.431 79.3411 124.779C79.4878 124.291 79.7186 123.867 80.0314 123.536C80.1385 123.423 80.293 123.368 80.4471 123.388C80.7026 123.421 80.9593 123.491 81.2134 123.594C81.7288 122.501 82.4885 121.687 83.3885 121.272C83.5175 121.213 83.6659 121.213 83.7949 121.272C84.6946 121.686 85.4541 122.5 85.9696 123.592C86.2237 123.49 86.4806 123.421 86.7366 123.388C86.8909 123.368 87.0452 123.423 87.1522 123.536C87.4651 123.867 87.6959 124.291 87.8426 124.778C88.8309 124.431 89.846 124.462 90.6464 124.88C90.7609 124.94 90.8471 125.042 90.8859 125.166C91.2034 126.175 90.9475 127.355 90.2466 128.353C91.5973 128.658 92.6647 129.362 93.1315 130.29C93.2011 130.428 93.2011 130.592 93.1315 130.73ZM87.2328 129.344C87.7619 129.212 88.2874 128.941 88.7503 128.551C89.6958 127.756 90.1911 126.597 90.0077 125.661C89.4354 125.438 88.7217 125.473 88.0183 125.756C88.0859 126.668 87.9219 127.7 87.5166 128.715C87.4305 128.931 87.3355 129.141 87.2328 129.344ZM82.0676 124.07C82.6288 124.471 83.1523 125.025 83.5908 125.689C84.0315 125.018 84.5545 124.464 85.1143 124.066C84.7391 123.253 84.202 122.617 83.5918 122.266C82.9806 122.618 82.4428 123.255 82.0676 124.07ZM78.4332 128.551C78.8961 128.941 79.4218 129.212 79.9509 129.344C79.8482 129.141 79.7533 128.931 79.667 128.715C79.2619 127.7 79.0979 126.668 79.1654 125.756C78.462 125.472 77.7483 125.438 77.1759 125.661C76.9925 126.597 77.4878 127.756 78.4332 128.551ZM81.2073 131.109C80.9975 130.898 80.7971 130.664 80.6093 130.412C79.6439 130.395 78.6368 129.998 77.8069 129.3C77.772 129.27 77.7377 129.241 77.7038 129.211C76.5172 129.358 75.5228 129.849 75.0549 130.51C75.6237 131.312 76.9686 131.855 78.451 131.855C79.5034 131.855 80.51 131.577 81.2073 131.109ZM83.4025 127.426C82.917 126.209 82.1053 125.205 81.2521 124.699C81.2282 124.687 81.2057 124.674 81.1846 124.66C80.9827 124.546 80.779 124.461 80.577 124.408C80.375 124.697 80.2398 125.068 80.1725 125.49C80.1708 125.516 80.167 125.541 80.1611 125.567C80.0487 126.382 80.1828 127.378 80.5715 128.352C80.9639 129.336 81.5693 130.18 82.2375 130.735C82.2531 130.746 82.2681 130.758 82.2826 130.772C82.6446 131.064 83.024 131.272 83.3971 131.37C83.9959 130.512 84.0078 128.943 83.4025 127.426ZM86.612 128.352C87.0007 127.378 87.1348 126.383 87.0227 125.568C87.0165 125.542 87.0126 125.515 87.0109 125.489C86.9436 125.067 86.8084 124.697 86.6066 124.408C86.4076 124.46 86.2067 124.543 86.0071 124.654C85.9808 124.673 85.9521 124.69 85.9214 124.703C85.2587 125.098 84.6192 125.794 84.1377 126.67C84.1973 126.798 84.2538 126.929 84.3071 127.063C84.8595 128.447 84.9636 129.862 84.6438 130.963C84.7307 130.904 84.8171 130.84 84.9024 130.771C84.9159 130.758 84.93 130.747 84.9445 130.736C85.6134 130.181 86.2194 129.336 86.612 128.352ZM92.1287 130.51C91.6608 129.849 90.6663 129.358 89.4797 129.211C89.4459 129.241 89.4114 129.27 89.3766 129.3C88.5467 129.998 87.5397 130.395 86.5744 130.412C86.3865 130.664 86.1862 130.898 85.9763 131.109C86.6737 131.577 87.6803 131.855 88.7326 131.855C90.2149 131.855 91.5599 131.312 92.1287 130.51ZM88.3145 134.123C88.1116 133.946 87.8039 133.968 87.6271 134.171C87.3199 134.525 85.8648 135.023 83.5918 135.023C81.3188 135.023 79.8637 134.525 79.5565 134.171C79.3798 133.968 79.0721 133.946 78.8692 134.123C78.6663 134.301 78.6451 134.609 78.8218 134.813C79.5829 135.689 81.8671 136 83.5919 136C85.3167 136 87.6008 135.689 88.3619 134.813C88.5386 134.609 88.5173 134.301 88.3145 134.123ZM77.1877 123.786C77.4465 123.859 77.7157 123.707 77.7887 123.448C78.5169 120.855 80.9033 119.045 83.5918 119.045C86.2804 119.045 88.6668 120.855 89.395 123.448C89.4556 123.663 89.651 123.804 89.8637 123.804C89.9074 123.804 89.9519 123.798 89.996 123.786C90.255 123.712 90.4058 123.442 90.3328 123.183C89.4868 120.171 86.7148 118.068 83.5918 118.068C80.4689 118.068 77.6969 120.171 76.8509 123.183C76.7779 123.442 76.9287 123.712 77.1877 123.786ZM83.5918 134.358C84.0104 134.358 85.4148 134.313 85.9147 133.737C86.0913 133.534 86.07 133.225 85.8671 133.048C85.6653 132.872 85.3596 132.892 85.1826 133.093C85.0715 133.194 84.4948 133.381 83.5918 133.381C82.6886 133.381 82.112 133.194 82.0009 133.092C81.8238 132.892 81.5183 132.872 81.3164 133.048C81.1135 133.225 81.0923 133.534 81.269 133.737C81.769 134.313 83.1734 134.358 83.5918 134.358ZM74.8185 121.851L75.0752 121.999C75.1519 122.044 75.2357 122.065 75.3185 122.065C75.4868 122.065 75.6504 121.977 75.7407 121.821C75.8754 121.587 75.7956 121.288 75.5626 121.153L75.306 121.004C75.0732 120.87 74.7751 120.949 74.6405 121.183C74.5059 121.417 74.5856 121.716 74.8185 121.851Z"
            fill="white" />
    </g>
    <defs>
        <filter id="filter0_d_1_466" x="-46" y="3.05176e-05" width="259.184" height="260"
            filterUnits="userSpaceOnUse" color-interpolation-filters="sRGB">
            <feFlood flood-opacity="0" result="BackgroundImageFix" />
            <feColorMatrix in="SourceAlpha" type="matrix"
                values="0 0 0 0 0 0 0 0 0 0 0 0 0 0 0 0 0 0 127 0" result="hardAlpha" />
            <feOffset dy="4" />
            <feGaussianBlur stdDeviation="60" />
            <feColorMatrix type="matrix" values="0 0 0 0 1 0 0 0 0 1 0 0 0 0 1 0 0 0 1 0" />
            <feBlend mode="normal" in2="BackgroundImageFix" result="effect1_dropShadow_1_466" />
            <feBlend mode="normal" in="SourceGraphic" in2="effect1_dropShadow_1_466"
                result="shape" />
        </filter>
    </defs>
</svg>
