<svg width="17" height="17" viewBox="0 0 17 17" fill="none" xmlns="http://www.w3.org/2000/svg">
<path d="M16.3345 10.1362L14.9414 7.35056C14.8692 2.76196 10.6855 -0.76836 5.97765 0.144591C3.02911 0.717079 0.680295 3.08874 0.132611 6.04508C-0.25311 8.12734 0.209941 10.1975 1.43616 11.8746C2.45175 13.2647 2.98874 14.908 2.98874 16.5019C2.98874 16.7772 3.2115 17 3.48682 17H10.4598C10.7351 17 10.9579 16.7772 10.9579 16.5019V15.2C10.9579 15.0575 11.0741 14.9413 11.2166 14.9413H13.4482C14.2721 14.9413 14.9424 14.271 14.9424 13.4471V11.9529H15.2119C15.6496 11.9529 16.0489 11.7306 16.279 11.358C16.5096 10.9849 16.5305 10.5287 16.3345 10.1362ZM7.47139 11.9528C4.99952 11.9528 2.98874 9.94206 2.98874 7.47019C2.98874 4.99832 4.99952 2.98754 7.47139 2.98754C9.94326 2.98754 11.954 4.99832 11.954 7.47019C11.954 9.94206 9.94326 11.9528 7.47139 11.9528Z" fill="white"/>
<path d="M7.47135 3.9837C5.54909 3.9837 3.98486 5.54793 3.98486 7.47019C3.98486 9.39245 5.54909 10.9567 7.47135 10.9567C9.39361 10.9567 10.9578 9.39245 10.9578 7.47019C10.9578 5.54797 9.39358 3.9837 7.47135 3.9837ZM9.46364 7.96827H7.96943V9.46248C7.96943 9.73776 7.74667 9.96056 7.47135 9.96056C7.19607 9.96056 6.97327 9.7378 6.97327 9.46248V7.96827H5.47907C5.20378 7.96827 4.98099 7.74551 4.98099 7.47019C4.98099 7.19491 5.20375 6.97211 5.47907 6.97211H6.97327V5.47791C6.97327 5.20262 7.19603 4.97983 7.47135 4.97983C7.74664 4.97983 7.96943 5.20259 7.96943 5.47791V6.97211H9.46364C9.73892 6.97211 9.96172 7.19487 9.96172 7.47019C9.96172 7.74551 9.73896 7.96827 9.46364 7.96827Z" fill="white"/>
</svg>
