<svg width="18" height="18" viewBox="0 0 18 18" fill="none" xmlns="http://www.w3.org/2000/svg">
<path d="M17.257 8.64009C17.257 9.45832 15.7694 10.0236 15.5239 10.76C15.2784 11.4965 16.1413 12.8577 15.6801 13.4899C15.2189 14.1221 13.6718 13.7205 13.0321 14.1891C12.3924 14.6577 12.2882 16.2421 11.5444 16.495C10.8006 16.7479 9.81871 15.5057 9.00049 15.5057C8.18226 15.5057 7.18554 16.7404 6.44912 16.5024C5.71274 16.2644 5.60115 14.6577 4.96146 14.1965C4.32176 13.7353 2.78945 14.137 2.30596 13.4973C1.82247 12.8576 2.70763 11.5261 2.46216 10.7674C2.21669 10.0087 0.743896 9.45828 0.743896 8.64006C0.743896 7.82183 2.23156 7.25653 2.47703 6.52012C2.7225 5.7837 1.85966 4.4225 2.30596 3.7828C2.75225 3.14311 4.31431 3.5522 4.954 3.08359C5.5937 2.61497 5.69784 1.03062 6.44167 0.777694C7.1855 0.524769 8.18222 1.77442 9.00045 1.77442C9.81868 1.77442 10.8154 0.53964 11.5518 0.777694C12.2882 1.01575 12.3998 2.62239 13.0395 3.08359C13.6792 3.54475 15.2189 3.14311 15.6875 3.7828C16.1561 4.4225 15.2858 5.75396 15.5313 6.51266C15.7768 7.27144 17.257 7.82187 17.257 8.64009Z" fill="white"/>
<path d="M6.65283 17.279C6.5115 17.279 6.36721 17.2582 6.21994 17.2098C5.4895 16.974 5.19122 16.2353 4.92789 15.5845C4.82154 15.3227 4.64448 14.8846 4.52621 14.799C4.40942 14.715 3.94825 14.6837 3.6723 14.6651C3.00806 14.6205 2.18164 14.5655 1.71229 13.9444C1.23028 13.3069 1.44228 12.4946 1.61262 11.8423C1.68181 11.5767 1.79857 11.1319 1.75395 10.9951C1.70934 10.8574 1.37312 10.5785 1.15145 10.3933C0.638957 9.96859 0 9.43823 0 8.64011C0 7.83676 0.650841 7.30046 1.17452 6.86904C1.38131 6.6987 1.7272 6.41382 1.77181 6.28514C1.81347 6.15052 1.69742 5.69973 1.629 5.43049C1.45567 4.75286 1.25858 3.98375 1.69594 3.35741C2.14374 2.71547 2.97906 2.66118 3.65001 2.61731C3.92969 2.59945 4.39757 2.56897 4.51433 2.48343C4.63559 2.39564 4.81187 1.96053 4.91674 1.70092C5.17856 1.05377 5.47536 0.321119 6.20281 0.0741709C6.94292 -0.178719 7.64288 0.267574 8.20371 0.624601C8.45811 0.786748 8.84193 1.03074 9.00109 1.03074C9.16324 1.03074 9.55078 0.785272 9.8074 0.623124C10.3913 0.254179 11.0526 -0.163847 11.7808 0.0704442C12.5105 0.306247 12.8095 1.04414 13.0721 1.69498C13.1785 1.9568 13.3563 2.39567 13.4745 2.48121C13.5913 2.56601 14.054 2.59649 14.33 2.61509C14.9964 2.65971 15.8265 2.7155 16.287 3.34405C16.7504 3.9763 16.5436 4.78039 16.3777 5.4268C16.3085 5.69533 16.1932 6.14462 16.2379 6.28444C16.2825 6.42131 16.6328 6.71213 16.8426 6.88546C17.3581 7.31168 18 7.84277 18 8.64092C18 9.44428 17.3492 9.98131 16.8255 10.4127C16.6194 10.5831 16.2728 10.868 16.2282 10.9966C16.1873 11.1305 16.3003 11.5761 16.368 11.8431C16.5414 12.5267 16.7377 13.3025 16.2803 13.9296C15.8258 14.5536 15.0343 14.6065 14.3366 14.6541C14.057 14.6727 13.5891 14.7039 13.4708 14.7909C13.3503 14.8795 13.1747 15.3146 13.0691 15.5742C12.8066 16.2205 12.5105 16.9532 11.783 17.2017C11.0429 17.4538 10.3474 17.0105 9.78954 16.6557C9.53813 16.4951 9.15803 16.2526 8.99958 16.2526C8.83743 16.2526 8.44989 16.498 8.19327 16.6602C7.72841 16.9524 7.21297 17.279 6.65283 17.279ZM6.65283 1.48815C6.58069 1.55435 6.40216 1.99544 6.29581 2.25877C6.07934 2.79285 5.85619 3.3455 5.39355 3.68396C4.92718 4.02538 4.3269 4.06479 3.74669 4.10272C3.47074 4.11984 3.00806 4.15033 2.89426 4.23214C2.8816 4.32436 2.99987 4.78556 3.0698 5.06151C3.21409 5.62681 3.36435 6.21075 3.18213 6.75597C3.00511 7.28781 2.55509 7.65823 2.11994 8.01677C1.91019 8.18932 1.5204 8.5114 1.48619 8.65126C1.51818 8.7658 1.89827 9.08194 2.10282 9.25154C2.52011 9.5989 2.99245 9.99091 3.17021 10.5391C3.348 11.0881 3.19102 11.6898 3.05268 12.2202C2.98275 12.488 2.86522 12.938 2.91134 13.0696C3.00282 13.1314 3.5027 13.1648 3.77197 13.1827C4.34325 13.2206 4.93383 13.2601 5.39651 13.5933C5.86287 13.9295 6.08901 14.4881 6.30769 15.0282C6.4133 15.2893 6.58962 15.7251 6.7049 15.8077C6.78671 15.7899 7.16979 15.5459 7.39888 15.4016C7.87196 15.1026 8.40752 14.7634 9.00109 14.7634C9.59318 14.7634 10.1235 15.1018 10.5914 15.3993C10.8183 15.5436 11.1969 15.7869 11.3323 15.7869C11.4051 15.7199 11.5837 15.2788 11.6901 15.0155C11.9065 14.4807 12.1304 13.9288 12.5923 13.5903C13.0587 13.2482 13.685 13.2065 14.2377 13.1693C14.5166 13.1515 14.983 13.1195 15.096 13.0347C15.1117 12.9402 14.9956 12.4828 14.9264 12.209C14.7844 11.6482 14.6371 11.068 14.8178 10.5265C14.9949 9.99467 15.4449 9.62348 15.88 9.26571C16.0838 9.09685 16.4602 8.78669 16.5108 8.64163C16.4617 8.50103 16.0942 8.19681 15.8956 8.03241C15.4761 7.68579 15.0008 7.29231 14.8238 6.74409C14.646 6.19366 14.8007 5.59039 14.9368 5.05782C15.0068 4.78855 15.1221 4.33705 15.0767 4.20538C14.9882 4.1511 14.5144 4.11984 14.2309 4.10051C13.6589 4.06257 13.0676 4.02316 12.6042 3.68916C12.1378 3.35295 11.9117 2.79433 11.693 2.2543C11.5874 1.99396 11.4111 1.55807 11.2958 1.47552C11.2147 1.49412 10.8309 1.73734 10.6018 1.8824C10.1287 2.18142 9.59315 2.52062 8.99958 2.52062C8.40749 2.52062 7.87414 2.18068 7.40331 1.88167C7.17503 1.73284 6.7897 1.48815 6.65283 1.48815ZM16.5138 8.65126H16.522H16.5138Z" fill="white"/>
<path d="M8.01104 11.7419C7.81391 11.7419 7.62501 11.6645 7.48515 11.5239L5.49912 9.53792C5.2083 9.2471 5.2083 8.77697 5.49912 8.48614C5.78995 8.19532 6.26008 8.19532 6.5509 8.48614L7.96196 9.89646L11.278 5.93109C11.5413 5.6172 12.0091 5.57329 12.326 5.83809C12.6414 6.10143 12.6823 6.57078 12.4198 6.88615L8.58158 11.4756C8.4477 11.6355 8.25282 11.7322 8.04377 11.7412C8.03337 11.7419 8.02219 11.7419 8.01104 11.7419Z" fill="#6AAE72"/>
</svg>
