<svg width="35" height="33" viewBox="0 0 35 33" fill="none" xmlns="http://www.w3.org/2000/svg">
<path d="M30.9585 17.6832C29.9733 17.1856 28.8787 16.9269 27.804 16.9269C25.4654 16.9269 23.4951 18.141 22.6592 20.0914C21.9925 21.6438 22.082 24.0022 22.8682 25.4451C23.3757 26.3805 24.5201 27.3756 26.2317 27.3756C26.57 27.3756 26.9183 27.3358 27.2666 27.2662C28.212 27.0672 29.5454 25.6541 29.8638 24.5296C30.1027 23.6838 29.1872 22.2408 28.2418 21.5642C28.1721 21.5144 28.0925 21.5144 28.0328 21.5144C27.9134 21.5144 27.3164 21.5343 27.0278 21.9025C26.9283 22.0219 26.8188 22.2408 26.8885 22.5593L26.9084 22.6389L26.9681 22.6886C27.5751 23.2758 27.8935 23.9823 27.7642 24.45C27.6746 24.7684 27.396 24.9874 26.9283 25.1068C26.4805 25.0272 25.8436 24.649 25.6247 24.3803C25.2167 23.8728 24.8485 22.6289 25.0176 21.9523C25.3162 20.7581 26.5302 19.9222 27.9831 19.9222C28.9881 19.9222 29.8837 20.3501 30.441 21.0965C31.3565 22.3304 32.0133 24.6789 31.4759 25.8432C30.8092 27.306 28.9483 28.8285 27.1472 29.3858C26.6894 29.5251 26.2217 29.5947 25.7739 29.5947C24.0225 29.5947 22.3109 28.5101 20.9675 26.5497C19.3455 24.1913 19.2559 21.7134 20.6988 19.365C21.3058 18.3897 22.1417 17.514 22.9577 16.6682C23.3458 16.2701 23.7439 15.8621 24.1121 15.4442C26.6297 12.5882 27.2367 9.29438 25.9331 5.6423C24.8186 2.50769 22.3607 0.587113 18.828 0.0696533C18.4996 0.0198975 18.1712 0 17.8428 0C14.7281 0 11.7527 2.01013 10.6084 4.87607C9.44407 7.79176 10.3496 10.9761 12.8573 12.8071C13.8126 13.5037 15.0466 13.8819 16.3203 13.8819C17.9822 13.8819 19.5047 13.2251 20.4202 12.1205C22.1915 9.97106 22.1816 7.53303 20.3804 5.92094C19.7734 5.37363 18.7185 5.1746 17.9324 5.1746C17.5344 5.1746 17.1861 5.22436 16.9174 5.30397C16.3004 5.50299 14.957 6.75684 14.9471 7.56288C14.9471 7.87137 15.1162 8.11019 15.4347 8.21966L15.4844 8.23956H15.5342C15.6635 8.23956 15.7432 8.15995 15.8924 8.02063C16.2009 7.7221 16.8477 7.11508 17.7334 7.11508C18.0618 7.11508 18.4101 7.20464 18.7484 7.37381C19.037 7.52307 19.0967 7.88132 19.1066 8.09029C19.1365 8.80677 18.6787 9.84169 17.8727 10.3293C17.4249 10.598 16.7383 10.7671 16.0815 10.7671C15.7033 10.7671 15.3551 10.7174 15.0864 10.6079C14.1311 10.2497 13.4743 9.48345 13.2156 8.43858C12.8971 7.13498 13.2952 5.67216 14.2405 4.61733C15.1859 3.57246 16.4994 2.9953 17.9424 2.9953C19.7037 2.9953 21.3954 3.871 22.4602 5.34377C23.8434 7.24444 24.0524 9.69242 23.0174 11.8817C21.9726 14.1107 19.8928 15.5238 17.4647 15.6731C17.2955 15.683 17.1164 15.683 16.9373 15.683C15.6436 15.683 14.3002 15.4143 13.0066 15.1556C12.1508 14.9864 11.2651 14.8073 10.3994 14.7078C10.0411 14.668 9.67295 14.6481 9.3147 14.6481C4.71727 14.6481 0.756706 18.0116 0.0899788 22.4598C-0.556847 26.7985 2.34889 30.8685 6.7075 31.7342C7.1553 31.8238 7.62301 31.8736 8.07081 31.8736C11.0164 31.8736 13.5738 30.0425 14.5789 27.2065C15.6237 24.2709 14.4097 21.2159 11.8124 20.2506C11.2353 20.0416 10.5486 19.9322 9.81226 19.9322C8.81715 19.9322 7.83198 20.1312 7.02594 20.4795C6.01092 20.9273 5.11532 22.6488 5.23473 23.9425C5.384 25.674 6.21989 26.1019 7.01599 26.5099L7.10555 26.5596C7.38418 26.699 7.90164 26.8681 8.44895 26.8681C9.2948 26.8681 9.85207 26.48 10.0113 25.7735L10.0212 25.7436C10.1406 24.6092 9.19529 24.1316 8.56837 23.8032C8.36934 23.7037 8.031 23.5345 8.0111 23.4449C8.0111 23.3156 8.27978 23.226 8.65793 23.226C9.54358 23.226 10.7377 23.6738 11.0562 24.3107C11.4542 25.1267 11.5537 26.49 10.9467 27.4055C10.2601 28.4305 9.34456 28.9479 8.20017 28.9479C7.34437 28.9479 6.37911 28.6394 5.41385 28.0722C3.14498 26.7189 2.35884 23.6141 3.65249 21.1462C4.94614 18.6783 7.12545 17.4543 9.91177 17.6235C12.9568 17.8026 15.2058 19.4844 16.4298 22.4896C16.7084 23.1862 16.9174 23.9325 17.1164 24.649C17.3751 25.6043 17.6538 26.5895 18.1016 27.4851C19.7435 30.7391 22.6393 32.5303 26.2615 32.5303C26.3909 32.5303 26.5302 32.5303 26.6596 32.5204C30.4211 32.391 33.1378 30.4804 34.5011 26.9975C35.8743 23.4748 34.322 19.3849 30.9585 17.6832Z" fill="#253334"/>
</svg>
