<svg width="22" height="20" viewBox="0 0 22 20" fill="none" xmlns="http://www.w3.org/2000/svg">
<g opacity="0.5">
<path d="M20.9971 6.52769C20.3648 5.23077 19.2787 4.50462 18.2279 3.80154C17.4448 3.27692 16.7064 2.78154 16.1833 2.07231L16.0864 1.94154C15.7787 1.52769 15.4279 1.05846 15.374 0.664615C15.3694 0.632308 15.351 0.606154 15.3417 0.573846C15.3279 0.52 15.3125 0.469231 15.2879 0.42C15.2694 0.38 15.2433 0.344615 15.2156 0.307692C15.1833 0.266154 15.1525 0.226154 15.1125 0.192308C15.074 0.158462 15.0325 0.135385 14.9894 0.109231C14.9494 0.0861539 14.9125 0.0646154 14.8679 0.0492308C14.814 0.0292308 14.7587 0.0215384 14.7002 0.0153846C14.671 0.0138461 14.6464 0 14.6156 0C14.5971 0 14.5817 0.00923081 14.5648 0.0107693C14.5464 0.0123077 14.5294 0.00461538 14.511 0.0076923C14.4771 0.0123077 14.451 0.0307693 14.4187 0.04C14.3664 0.0538462 14.3171 0.0676923 14.271 0.0923077C14.2279 0.113846 14.191 0.141538 14.154 0.172308C14.114 0.203077 14.0756 0.233846 14.0433 0.272308C14.011 0.309231 13.9879 0.349231 13.9633 0.390769C13.9387 0.433846 13.9156 0.475385 13.8987 0.523077C13.8817 0.570769 13.8756 0.62 13.8694 0.672308C13.8617 0.703077 13.8464 0.733846 13.8464 0.769231V14.4769C13.2017 14.0862 12.4079 13.8462 11.5387 13.8462C9.41712 13.8462 7.6925 15.2262 7.6925 16.9231C7.6925 18.62 9.41712 20 11.5387 20C13.6602 20 15.3848 18.62 15.3848 16.9231V7.95692C16.5402 8.39846 18.431 9.52308 18.951 12.1492C18.854 12.2923 18.7617 12.4477 18.654 12.5692C18.3725 12.8877 18.4048 13.3738 18.7233 13.6538C18.8694 13.7831 19.051 13.8462 19.231 13.8462C19.4448 13.8462 19.6556 13.7569 19.8079 13.5846C20.0125 13.3523 20.1956 13.0769 20.371 12.7938C20.391 12.7692 20.4064 12.7462 20.4233 12.72C21.0448 11.68 21.4571 10.3646 21.5356 9.06462C21.5864 8.22923 21.4002 7.35231 20.9971 6.52769ZM11.5387 18.4615C10.2879 18.4615 9.23097 17.7569 9.23097 16.9231C9.23097 16.0892 10.2879 15.3846 11.5387 15.3846C12.7894 15.3846 13.8464 16.0892 13.8464 16.9231C13.8464 17.7569 12.7894 18.4615 11.5387 18.4615ZM20.0017 8.96769C19.9802 9.32769 19.9248 9.68769 19.8463 10.04C18.7648 7.86923 16.8033 6.73846 15.3848 6.32V3.49385C15.9879 4.13692 16.6879 4.61846 17.374 5.07692C18.2956 5.69385 19.1664 6.27692 19.6171 7.20154C19.9002 7.77846 20.0356 8.40769 20.0017 8.96769Z" fill="white"/>
<path d="M10 0H0.769231C0.344615 0 0 0.344615 0 0.769231C0 1.19385 0.344615 1.53846 0.769231 1.53846H10C10.4246 1.53846 10.7692 1.19385 10.7692 0.769231C10.7692 0.344615 10.4246 0 10 0Z" fill="white"/>
<path d="M10 4.61542H0.769231C0.344615 4.61542 0 4.96003 0 5.38465C0 5.80926 0.344615 6.15388 0.769231 6.15388H10C10.4246 6.15388 10.7692 5.80926 10.7692 5.38465C10.7692 4.96003 10.4246 4.61542 10 4.61542Z" fill="white"/>
<path d="M5.38461 9.23083H0.769231C0.344615 9.23083 0 9.57545 0 10.0001C0 10.4247 0.344615 10.7693 0.769231 10.7693H5.38461C5.80923 10.7693 6.15385 10.4247 6.15385 10.0001C6.15385 9.57545 5.80923 9.23083 5.38461 9.23083Z" fill="white"/>
<path d="M5.38461 13.8463H0.769231C0.344615 13.8463 0 14.1909 0 14.6155C0 15.0401 0.344615 15.3847 0.769231 15.3847H5.38461C5.80923 15.3847 6.15385 15.0401 6.15385 14.6155C6.15385 14.1909 5.80923 13.8463 5.38461 13.8463Z" fill="white"/>
</g>
</svg>
