<svg width="202" height="213" viewBox="0 0 202 213" fill="none" xmlns="http://www.w3.org/2000/svg">
<path d="M95.8704 8.37058V5.20343C95.8704 2.3294 98.1668 0 101 0C103.833 0 106.13 2.3294 106.13 5.20343V8.37058C106.13 11.2446 103.833 13.574 101 13.574C98.1668 13.574 95.8704 11.244 95.8704 8.37058ZM46.2626 24.64C47.2127 26.3103 48.9369 27.244 50.7106 27.244C51.5804 27.244 52.4621 27.0191 53.2692 26.5467C55.7235 25.1106 56.5653 21.9284 55.1495 19.4394L53.5895 16.6966C52.1732 14.2071 49.0355 13.3537 46.5829 14.7893C44.1286 16.2254 43.2873 19.4076 44.7026 21.8966L46.2626 24.64ZM148.729 26.5467C149.536 27.0197 150.418 27.2446 151.288 27.2446C153.061 27.2446 154.786 26.3108 155.736 24.6417L157.297 21.8989C158.713 19.4099 157.873 16.2278 155.419 14.791C152.966 13.3549 149.829 14.2077 148.412 16.6961L146.851 19.4389C145.434 21.9272 146.275 25.1094 148.729 26.5467ZM188.116 64.5913C188.986 64.5913 189.869 64.3664 190.677 63.8929L193.381 62.3093C195.834 60.872 196.674 57.6892 195.257 55.2008C193.841 52.7125 190.704 51.8597 188.25 53.2976L185.546 54.8811C183.093 56.3184 182.253 59.5006 183.669 61.9896C184.619 63.6582 186.343 64.5913 188.116 64.5913ZM201.45 156.874C194.789 170.265 176.175 179.263 155.131 179.263C140.705 179.263 127.192 175.042 118.005 167.816C112.743 171.474 107.187 173.83 101.682 174.55C101.431 174.583 101.18 174.595 100.937 174.592C100.732 174.591 100.525 174.577 100.319 174.55C94.8137 173.829 89.2576 171.474 83.9951 167.816C74.8083 175.043 61.2961 179.263 46.869 179.263C25.8252 179.263 7.21117 170.265 0.549949 156.874C-0.183031 155.4 -0.183601 153.661 0.549949 152.186C5.46479 142.303 16.704 134.809 30.9264 131.561C23.5465 120.929 20.8517 108.365 24.194 97.618C24.6032 96.3027 25.5106 95.206 26.7161 94.5688C35.1448 90.1147 45.8345 89.7921 56.2405 93.4911C57.7851 88.3004 60.216 83.7833 63.5098 80.2623C64.6367 79.058 66.2639 78.4717 67.8866 78.6839C70.5775 79.036 73.2797 79.7789 75.9551 80.8734C81.3824 69.238 89.3824 60.561 98.8593 56.1496C100.217 55.5171 101.78 55.5171 103.138 56.1496C112.612 60.5586 120.609 69.2299 126.038 80.8578C128.713 79.7726 131.418 79.0372 134.114 78.6839C135.738 78.4717 137.364 79.058 138.49 80.2623C141.785 83.7833 144.215 88.2999 145.76 93.49C156.166 89.7915 166.855 90.1153 175.283 94.5682C176.488 95.2054 177.396 96.3021 177.805 97.6169C181.149 108.365 178.454 120.928 171.073 131.56C185.296 134.808 196.535 142.302 201.45 152.185C202.183 153.661 202.183 155.4 201.45 156.874ZM139.339 142.114C144.909 140.71 150.443 137.819 155.318 133.67C165.274 125.197 170.488 112.859 168.557 102.889C162.532 100.515 155.016 100.883 147.61 103.897C148.321 113.613 146.594 124.602 142.327 135.419C141.421 137.718 140.42 139.954 139.339 142.114ZM84.9504 85.9433C90.8598 90.2107 96.372 96.1171 100.989 103.183C105.63 96.0414 111.136 90.1442 117.032 85.9016C113.081 77.2426 107.425 70.47 101 66.7276C94.5635 70.4764 88.9008 77.2645 84.9504 85.9433ZM46.6809 133.67C51.5547 137.819 57.0903 140.711 62.6617 142.114C61.5799 139.953 60.5808 137.719 59.6728 135.417C55.4066 124.602 53.6796 113.612 54.3903 103.897C46.9842 100.882 39.4686 100.513 33.4417 102.887C31.5107 112.859 36.7253 125.196 46.6809 133.67ZM75.8913 160.915C73.6821 158.661 71.5721 156.172 69.5943 153.483C59.4289 153.307 48.824 149.081 40.0858 141.642C39.7182 141.329 39.3568 141.013 39 140.693C26.5058 142.263 16.0343 147.487 11.1075 154.529C17.0973 163.075 31.2587 168.856 46.8679 168.856C57.9498 168.856 68.5489 165.892 75.8913 160.915ZM99.0064 121.683C93.8943 108.723 85.3471 98.0349 76.3626 92.6407C76.1119 92.5204 75.8747 92.3811 75.6519 92.2261C73.5259 91.0184 71.3811 90.1112 69.254 89.5423C67.1274 92.6268 65.7037 96.5727 64.9952 101.068C64.9769 101.342 64.937 101.616 64.8749 101.888C63.6911 110.569 65.1035 121.174 69.197 131.552C73.3287 142.026 79.7027 151.015 86.7389 156.926C86.9031 157.046 87.0615 157.178 87.2137 157.32C91.0262 160.435 95.0211 162.643 98.9494 163.693C105.254 154.55 105.38 137.842 99.0064 121.683ZM132.802 131.551C136.894 121.177 138.307 110.576 137.126 101.896C137.061 101.617 137.02 101.336 137.002 101.056C136.294 96.5652 134.87 92.6227 132.745 89.5406C130.649 90.0991 128.534 90.9854 126.433 92.1648C126.155 92.3678 125.853 92.5447 125.53 92.691C118.552 96.8982 111.818 104.306 106.748 113.634C107.376 115.002 107.971 116.397 108.531 117.817C114.348 132.564 115.445 147.634 112.077 159.357C112.992 158.727 113.901 158.041 114.8 157.307C114.942 157.175 115.09 157.052 115.244 156.939C122.286 151.028 128.668 142.033 132.802 131.551ZM190.892 154.529C185.965 147.487 175.493 142.263 162.998 140.693C162.642 141.013 162.279 141.33 161.912 141.642C153.174 149.079 142.57 153.306 132.405 153.483C130.428 156.172 128.318 158.661 126.108 160.915C133.451 165.891 144.051 168.856 155.131 168.856C170.74 168.856 184.902 163.075 190.892 154.529ZM150.728 193.015C148.592 191.127 145.352 191.354 143.491 193.521C140.256 197.288 124.934 202.593 101 202.593C77.0654 202.593 61.7435 197.288 58.5089 193.521C56.648 191.354 53.4077 191.127 51.2715 193.015C49.1352 194.902 48.9118 198.189 50.7728 200.356C58.7871 209.689 82.8386 213 101.001 213C119.162 213 143.214 209.688 151.228 200.356C153.088 198.189 152.864 194.902 150.728 193.015ZM33.5654 82.9155C36.2904 83.6942 39.1254 82.0841 39.8938 79.3182C47.5621 51.7099 72.6898 32.4278 101 32.4278C129.31 32.4278 154.438 51.7099 162.106 79.3182C162.744 81.6129 164.802 83.112 167.041 83.112C167.502 83.112 167.97 83.0484 168.435 82.9155C171.162 82.1361 172.749 79.2621 171.981 76.4962C163.073 44.4217 133.884 22.0209 101 22.0209C68.1158 22.0209 38.9271 44.4222 30.019 76.4962C29.2507 79.2621 30.8381 82.1361 33.5654 82.9155ZM101 195.512C105.407 195.512 120.196 195.035 125.459 188.902C127.319 186.734 127.095 183.447 124.958 181.56C122.833 179.683 119.614 179.899 117.75 182.035C116.58 183.113 110.508 185.105 101 185.105C91.4896 185.105 85.4172 183.113 84.2482 182.034C82.3832 179.899 79.1657 179.683 77.0403 181.561C74.9035 183.449 74.6801 186.735 76.541 188.902C81.8058 195.035 96.5937 195.512 101 195.512ZM8.619 62.3082L11.3212 63.8923C12.1294 64.3658 13.0117 64.5913 13.8832 64.5913C15.6553 64.5913 17.3788 63.6587 18.3296 61.9902C19.7471 59.5018 18.9075 56.319 16.4544 54.8817L13.7521 53.2976C11.3007 51.8608 8.16131 52.7107 6.74437 55.1997C5.32686 57.6875 6.16642 60.8703 8.619 62.3082Z" fill="white"/>
</svg>
