<svg width="13" height="17" viewBox="0 0 13 17" fill="none" xmlns="http://www.w3.org/2000/svg">
<path d="M12.4667 2.05418C12.3135 1.96503 12.1241 1.96503 11.9709 2.05418C11.3773 2.38349 10.7089 2.55425 10.0301 2.55C9.03761 2.57195 8.07798 2.19423 7.36677 1.50168C6.54572 0.697996 5.43561 0.258852 4.28694 0.283355C3.36187 0.275354 2.45742 0.556684 1.70012 1.08803V0.85C1.70012 0.380574 1.31958 0 0.850122 0C0.380663 0 0.00012207 0.380541 0.00012207 0.85V16.15C0.00012207 16.6194 0.380663 17 0.850122 17C1.31955 17 1.70012 16.6195 1.70012 16.15V8.78332C1.79402 8.77452 1.88347 8.73916 1.95794 8.68132C2.63203 8.1849 3.44986 7.92227 4.28694 7.93332C5.28124 7.91048 6.24297 8.28823 6.95594 8.98164C7.77543 9.78416 8.88335 10.2232 10.0301 10.2C10.909 10.2102 11.771 9.95871 12.5064 9.47747C12.6638 9.36839 12.7555 9.18721 12.7501 8.99579V2.55C12.7519 2.34573 12.6436 2.15631 12.4667 2.05418Z" fill="white"/>
</svg>
