<svg width="20" height="17" viewBox="0 0 20 17" fill="none" xmlns="http://www.w3.org/2000/svg">
<path d="M9.74912 0.27417C5.2097 0.27417 1.52332 3.96055 1.52332 8.49998C1.52332 13.0394 5.2097 16.7258 9.74912 16.7258C14.2885 16.7258 17.9749 13.0394 17.9749 8.49998C17.9749 3.96055 14.2885 0.27417 9.74912 0.27417Z" fill="#B1B1B1"/>
<path d="M18.6147 11.0896H0.883489C0.548363 11.0896 0.27417 10.8154 0.27417 10.4803V6.51972C0.27417 6.18459 0.548363 5.9104 0.883489 5.9104H18.6147C18.9498 5.9104 19.224 6.18459 19.224 6.51972V10.5108C19.224 10.8154 18.9498 11.0896 18.6147 11.0896Z" fill="#B1B1B1"/>
<path d="M4.75285 12.3387H4.20447V12.8871H4.75285V12.3387Z" fill="white"/>
<path d="M15.294 12.3387H14.7456V12.8871H15.294V12.3387Z" fill="white"/>
<path d="M4.75285 4.11292H4.20447V4.6613H4.75285V4.11292Z" fill="white"/>
<path d="M15.294 4.11292H14.7456V4.6613H15.294V4.11292Z" fill="white"/>
<path d="M18.6757 5.6362H17.7618C16.5736 2.34588 13.4356 0 9.74923 0C6.06285 0 2.92485 2.34588 1.73668 5.6362H0.822703C0.365713 5.6362 0.00012207 6.00179 0.00012207 6.45878V10.5412C0.00012207 10.9982 0.365713 11.3638 0.822703 11.3638H1.73668C2.92485 14.6541 6.06285 17 9.74923 17C13.4356 17 16.5736 14.6541 17.7618 11.3638H18.6757C19.1327 11.3638 19.4983 10.9982 19.4983 10.5412V6.45878C19.4983 6.00179 19.1327 5.6362 18.6757 5.6362ZM9.74923 0.548387C13.1309 0.548387 15.9947 2.65054 17.1525 5.6362H2.346C3.50371 2.65054 6.36751 0.548387 9.74923 0.548387ZM9.74923 16.4516C6.36751 16.4516 3.50371 14.3495 2.346 11.3638H17.1525C15.9947 14.3495 13.1309 16.4516 9.74923 16.4516ZM18.9499 10.5412C18.9499 10.6935 18.8281 10.8154 18.6757 10.8154H0.822703C0.670373 10.8154 0.548509 10.6935 0.548509 10.5412V6.45878C0.548509 6.30645 0.670373 6.18459 0.822703 6.18459H18.6757C18.8281 6.18459 18.9499 6.30645 18.9499 6.45878V10.5412Z" fill="white"/>
<path d="M9.74914 1.40149L10.1147 2.13267L10.9068 2.22407L10.328 2.80292L10.4499 3.59504L9.74914 3.22945L9.04842 3.59504L9.17028 2.80292L8.59143 2.22407L9.38354 2.13267L9.74914 1.40149Z" fill="white"/>
<path d="M12.948 3.10754L13.2222 3.65593L13.8011 3.74733L13.3745 4.14339L13.4964 4.75271L12.948 4.47851L12.4301 4.75271L12.5215 4.14339L12.095 3.74733L12.7043 3.65593L12.948 3.10754Z" fill="white"/>
<path d="M6.55019 3.10754L6.79392 3.65593L7.40324 3.74733L6.97671 4.14339L7.06811 4.75271L6.55019 4.47851L6.0018 4.75271L6.12367 4.14339L5.69714 3.74733L6.276 3.65593L6.55019 3.10754Z" fill="white"/>
<path d="M9.74914 15.5986L9.38354 14.8674L8.59143 14.776L9.17028 14.1971L9.04842 13.405L9.74914 13.7706L10.4499 13.405L10.328 14.1971L10.9068 14.776L10.1147 14.8674L9.74914 15.5986Z" fill="white"/>
<path d="M6.55019 13.8925L6.276 13.3441L5.69714 13.2527L6.12367 12.8566L6.0018 12.2473L6.55019 12.5215L7.06811 12.2473L6.97671 12.8566L7.40324 13.2527L6.79392 13.3441L6.55019 13.8925Z" fill="white"/>
<path d="M12.948 13.8925L12.7043 13.3441L12.095 13.2527L12.5215 12.8566L12.4301 12.2473L12.948 12.5215L13.4964 12.2473L13.3745 12.8566L13.8011 13.2527L13.2222 13.3441L12.948 13.8925Z" fill="white"/>
<path d="M3.25971 7.43359H2.559C2.52853 7.43359 2.49807 7.43359 2.4676 7.46406C2.43713 7.49453 2.43713 7.52499 2.43713 7.55546V9.41388C2.43713 9.44435 2.43713 9.47481 2.4676 9.50528C2.52853 9.56621 2.61993 9.56621 2.6504 9.50528C2.68086 9.47481 2.68086 9.44435 2.68086 9.41388V8.7741H3.22925C3.53391 8.7741 3.83857 8.6827 3.96043 8.43897C4.05183 8.22571 4.0823 7.98198 3.96043 7.76872C3.83857 7.52499 3.53391 7.43359 3.25971 7.43359ZM3.22925 8.53037H2.68086V7.70779C3.07692 7.70779 3.47298 7.64686 3.65577 7.82965C3.74717 7.92105 3.77764 8.01245 3.77764 8.13431C3.77764 8.4085 3.53391 8.53037 3.22925 8.53037Z" fill="white"/>
<path d="M5.30097 7.43359H4.60026C4.56979 7.43359 4.53933 7.43359 4.50886 7.46406C4.47839 7.49453 4.47839 7.52499 4.47839 7.55546V9.41388C4.47839 9.59668 4.75259 9.59668 4.75259 9.41388V8.71316C5.4533 8.71316 5.84936 8.5913 5.84936 9.32248C5.84936 9.38341 5.84936 9.47481 5.87983 9.50528C5.94076 9.56621 6.03216 9.56621 6.09309 9.50528C6.18449 9.41388 6.09309 8.98736 6.06262 8.83503C6.00169 8.6827 5.91029 8.5913 5.75796 8.56083C6.30635 8.4085 6.36728 7.43359 5.30097 7.43359ZM4.72212 8.46944V7.70779C5.11818 7.70779 5.51424 7.67732 5.7275 7.79919C5.8189 7.86012 5.84936 7.95152 5.84936 8.07338C5.84936 8.53037 5.20958 8.46944 4.72212 8.46944Z" fill="white"/>
<path d="M8.01239 7.67732C8.04285 7.67732 8.07332 7.67732 8.10379 7.64686C8.16472 7.58592 8.16472 7.52499 8.10379 7.46406C8.07332 7.43359 8.04285 7.43359 8.01239 7.43359H6.79375C6.70235 7.43359 6.64142 7.49453 6.64142 7.58592C6.64142 9.32248 6.55002 9.56621 6.79375 9.56621H8.01239C8.04285 9.56621 8.07332 9.56621 8.10379 9.53574C8.19518 9.44435 8.13425 9.32248 8.01239 9.32248H6.91562V8.65223C7.76866 8.65223 8.01239 8.71316 8.01239 8.53037C8.01239 8.43897 7.95146 8.4085 7.89053 8.4085H6.91562V7.73825H8.01239V7.67732Z" fill="white"/>
<path d="M10.6325 7.4032C10.4192 7.4032 10.3887 7.64693 9.74896 9.26162L9.04825 7.52506C9.01778 7.46413 8.95685 7.4032 8.86545 7.4032C8.77405 7.4032 8.68265 7.4032 8.62172 7.46413C8.59126 7.4946 8.56079 7.55553 8.56079 7.61646V9.44442C8.56079 9.53581 8.62172 9.59675 8.71312 9.59675C8.80452 9.59675 8.86545 9.53581 8.86545 9.44442V7.70786C8.89592 7.79926 9.56617 9.47488 9.65757 9.53582C9.7185 9.59675 9.80989 9.59675 9.90129 9.53582C9.99269 9.47488 10.6325 7.79926 10.6934 7.70786V9.44442C10.6934 9.53581 10.7543 9.59675 10.8457 9.59675C10.9371 9.59675 10.9981 9.53581 10.9981 9.44442V7.61646C10.9981 7.55553 10.9676 7.52506 10.9371 7.46413C10.8153 7.4032 10.7543 7.4032 10.6325 7.4032Z" fill="white"/>
<path d="M11.577 7.4641C11.5465 7.49456 11.5465 7.52503 11.5465 7.55549V9.44438C11.5465 9.53578 11.6074 9.59671 11.6988 9.59671C11.9426 9.59671 11.8512 9.35299 11.8512 7.58596C11.8512 7.55549 11.8512 7.52503 11.8207 7.49456C11.7293 7.40316 11.6379 7.40316 11.577 7.4641Z" fill="white"/>
<path d="M13.8619 7.55552C13.8619 8.80462 13.9533 9.10928 13.5572 9.26161C13.1916 9.41394 12.6737 9.26161 12.6737 8.74369V7.52505C12.6737 7.49459 12.6737 7.46412 12.6432 7.43365C12.5518 7.34226 12.3995 7.40319 12.3995 7.52505C12.3995 8.77416 12.3081 9.20068 12.8565 9.47487C13.4049 9.7186 14.1665 9.44441 14.1665 8.74369V7.52505C14.1665 7.49459 14.1665 7.46412 14.1361 7.43365C14.0142 7.37272 13.8619 7.43365 13.8619 7.55552Z" fill="white"/>
<path d="M16.878 7.4032C16.7867 7.4032 16.7257 7.4032 16.6648 7.43366C16.5734 7.4946 15.9336 9.13976 15.9031 9.26162L15.2024 7.52506C15.172 7.46413 15.111 7.4032 15.0196 7.4032C14.8673 7.4032 14.715 7.43366 14.715 7.61646V9.44442C14.715 9.47488 14.715 9.50535 14.7454 9.53582C14.8064 9.59675 14.8978 9.59675 14.9282 9.53582C14.9587 9.50535 14.9587 9.47488 14.9587 9.44442V7.70786L15.6594 9.44442C15.6899 9.53581 15.7813 9.56628 15.8422 9.56628C15.9336 9.56628 15.9945 9.50535 16.025 9.44442L16.7257 7.70786V9.44442C16.7257 9.47488 16.7257 9.50535 16.7562 9.53582C16.8171 9.59675 16.9085 9.59675 16.939 9.53582C16.9694 9.50535 16.9694 9.47488 16.9694 9.44442V7.61646C17.0913 7.4946 16.9999 7.4032 16.878 7.4032Z" fill="white"/>
</svg>
