<svg width="18" height="22" viewBox="0 0 18 22" fill="none" xmlns="http://www.w3.org/2000/svg">
<g opacity="0.5">
<path d="M8.88526 10.9424C11.6308 10.9424 13.8565 8.71672 13.8565 5.9712C13.8565 3.22568 11.6308 1 8.88526 1C6.13974 1 3.91406 3.22568 3.91406 5.9712C3.91406 8.71672 6.13974 10.9424 8.88526 10.9424Z" stroke="white" stroke-width="1.5" stroke-linecap="round" stroke-linejoin="round"/>
<path fill-rule="evenodd" clip-rule="evenodd" d="M1.00002 17.8564C0.998698 17.5069 1.07686 17.1617 1.2286 16.8469C1.70477 15.8946 3.04757 15.3898 4.16181 15.1613C4.9654 14.9898 5.78009 14.8752 6.59981 14.8184C8.11747 14.6851 9.64389 14.6851 11.1615 14.8184C11.9812 14.8759 12.7958 14.9904 13.5995 15.1613C14.7138 15.3898 16.0566 15.847 16.5328 16.8469C16.8379 17.4887 16.8379 18.2337 16.5328 18.8754C16.0566 19.8754 14.7138 20.3325 13.5995 20.5515C12.7969 20.7301 11.9819 20.8479 11.1615 20.9039C9.92629 21.0086 8.68528 21.0277 7.4474 20.961C7.1617 20.961 6.88552 20.961 6.59981 20.9039C5.78251 20.8486 4.97065 20.7308 4.17134 20.5515C3.04757 20.3325 1.71429 19.8754 1.2286 18.8754C1.07763 18.5569 0.99955 18.2088 1.00002 17.8564Z" stroke="white" stroke-width="1.5" stroke-linecap="round" stroke-linejoin="round"/>
</g>
</svg>
